<?xml version="1.0" encoding="UTF-8"?> <svg xmlns="http://www.w3.org/2000/svg" width="85" height="48" viewBox="0 0 85 48" fill="none"><path d="M18.4322 40.6349C18.3849 36.7514 21.1815 33.8676 24.2296 33.6455C28.0649 33.3646 30.9636 36.808 30.9466 40.57C30.9296 44.3843 28.1784 47.4568 24.7386 47.5155C21.1417 47.5741 18.3509 44.1328 18.4341 40.637L18.4322 40.6349Z" fill="black"></path><path d="M42.1401 33.6475C45.6272 33.6328 48.4673 36.7702 48.4162 40.6705C48.3651 44.5226 45.5269 47.4546 42.2687 47.5112C38.8062 47.572 35.9151 44.598 35.8659 40.6747C35.8148 36.6214 38.8138 33.5825 42.1401 33.6475Z" fill="black"></path><path d="M70.793 40.6828C70.7078 36.9292 73.4098 33.8505 76.632 33.6388C80.4635 33.3873 83.2562 36.7385 83.3206 40.3684C83.3887 44.2708 80.6603 47.427 77.2696 47.5255C73.6236 47.6324 70.7684 44.3441 70.7949 40.6828H70.793Z" fill="black"></path><path d="M13.4458 40.6213C13.5688 44.0731 10.8309 47.5144 7.23026 47.4934C3.78853 47.4725 1.00525 44.4063 0.982547 40.6234C0.959842 36.6477 4.02883 33.4683 7.55759 33.6612C10.7004 33.833 13.582 36.918 13.4458 40.6213Z" fill="black"></path><path d="M65.8231 40.5819C65.8288 44.3145 63.0549 47.4289 59.7721 47.4897C56.1847 47.5547 53.3541 44.3397 53.3712 40.5756C53.3882 36.8619 56.1147 33.7916 59.3294 33.6721C63.0644 33.5317 65.912 36.996 65.8231 40.584V40.5819Z" fill="black"></path><path d="M29.7529 18.8501C29.1682 19.8162 28.5628 20.533 27.7681 21.0297C25.3803 22.5219 22.1353 22.1803 19.9632 20.1013C17.8875 18.1166 17.1004 15.5744 17.5716 12.5669C18.1827 8.675 21.4655 5.9295 25.1059 6.19776C28.1976 6.42411 30.3905 8.0777 31.575 11.2885C31.8437 12.0157 31.9856 12.7869 31.9875 13.5582C31.9913 16.0333 32.1199 18.5126 31.9231 20.9836C31.6469 24.4836 29.5978 27.0824 26.4985 27.8096C24.3226 28.3189 22.1959 28.0737 20.1751 26.9797C19.7513 26.7492 19.4693 26.3761 19.5356 25.8459C19.5961 25.3617 19.808 24.9321 20.3 24.7938C20.633 24.6995 20.9149 24.8671 21.2082 24.997C23.0378 25.8018 24.8902 26.112 26.7974 25.3282C28.2695 24.7225 29.1418 23.5279 29.5637 21.889C29.8078 20.9417 29.7945 19.9818 29.751 18.8543L29.7529 18.8501ZM19.6094 14.0486C19.6037 17.2489 21.7172 19.6612 24.6613 19.7408C27.5751 19.8183 29.8286 17.3055 29.8305 14.0654C29.8343 10.8861 27.6659 8.40463 24.8751 8.38786C21.8174 8.3711 19.6207 10.7331 19.6094 14.0486Z" fill="black"></path><path d="M64.5971 9.10286C64.5971 6.51665 64.5933 3.93043 64.5971 1.34422C64.5971 0.413684 65.0001 -0.0180568 65.8194 0.000805357C66.4078 0.0133801 66.7938 0.422071 66.843 1.11159C66.8657 1.42386 66.8487 1.74033 66.8487 2.0547C66.8487 6.00946 66.8525 9.96423 66.8487 13.919C66.8449 17.4735 65.0796 20.3112 62.0446 21.466C58.1393 22.9519 53.657 20.8603 52.499 16.0818C51.6229 12.4624 53.1045 8.63131 56.2208 6.98401C58.0901 5.99689 60.0031 5.87324 61.9349 6.71784C63.0266 7.19359 63.8762 8.03191 64.5933 9.10286H64.5971ZM59.6076 8.38609C56.6389 8.36932 54.4649 10.7543 54.4441 14.0531C54.4251 17.2534 56.6484 19.7705 59.5546 19.739C62.4079 19.7076 64.6255 17.4211 64.669 14.1097C64.7106 10.8822 62.5044 8.40285 59.6057 8.38609H59.6076Z" fill="black"></path><path d="M81.9507 18.928C81.349 19.9173 80.6584 20.7241 79.7124 21.1978C77.2791 22.4217 74.9405 22.1262 72.7343 20.5376C71.1828 19.4205 70.2254 17.7858 69.8507 15.8011C69.1942 12.3221 70.4846 8.84099 73.4987 7.09309C76.6585 5.25927 80.8268 6.25268 82.857 9.31673C83.7955 10.7335 84.2515 12.32 84.261 14.0637C84.2742 16.2811 84.2666 18.4984 84.261 20.7158C84.261 21.6442 83.8844 22.0864 83.1163 22.0864C82.384 22.0864 82.0245 21.6421 82.0188 20.7304C82.015 20.1771 82.0132 19.6217 82.0094 19.0684C82.0094 19.0538 81.998 19.0391 81.9488 18.9301L81.9507 18.928ZM71.8677 14.0784C71.8337 17.3206 74.0985 19.7224 76.9915 19.7412C79.8581 19.7601 82.1059 17.2179 82.0926 14.0385C82.0794 10.8529 79.8789 8.41761 77.054 8.37989C74.1326 8.34007 71.8072 10.8131 71.8658 14.0763L71.8677 14.0784Z" fill="black"></path><path d="M12.2929 18.9665C11.9618 19.3794 11.6875 19.8573 11.3128 20.2429C10.2211 21.3642 8.90419 21.8923 7.44728 21.9153C4.55047 21.9594 2.27806 20.6683 0.877905 17.7992C-1.02744 13.8926 0.268649 9.23995 3.79742 7.1211C7.2978 5.01902 11.8502 6.44836 13.7347 10.2438C14.2986 11.3798 14.5786 12.6058 14.5881 13.8968C14.6032 16.1875 14.5956 18.4803 14.5881 20.771C14.5843 21.7707 13.9656 22.3198 13.1028 22.0641C12.6695 21.9363 12.4027 21.5905 12.3951 21.054C12.3876 20.3728 12.3743 19.6938 12.3611 19.0127C12.3611 19.0043 12.3346 18.9938 12.2892 18.9665H12.2929ZM12.4084 14.0456C12.4935 10.9438 10.2324 8.36181 7.2978 8.37858C4.3764 8.39744 2.1721 10.8579 2.18535 14.1148C2.19859 17.2669 4.47289 19.7797 7.31483 19.7399C10.3138 19.698 12.4765 17.1495 12.4084 14.0456Z" fill="black"></path><path d="M42.2709 6.17601C46.2671 6.24308 49.459 9.5712 49.4269 14.1694C49.3947 18.5999 46.1233 22.0056 42.0571 21.9385C37.9191 21.8714 34.7498 18.3631 34.852 13.8739C34.9542 9.38258 38.201 6.10266 42.2728 6.17601H42.2709ZM42.1669 8.39126C39.2247 8.38706 37.0431 10.7909 37.0317 14.029C37.0204 17.3152 39.219 19.6981 42.1158 19.74C45.0107 19.7819 47.2661 17.2649 47.2585 14.0876C47.2509 10.8266 45.0769 8.39545 42.1688 8.39126H42.1669Z" fill="black"></path></svg> 