<?xml version="1.0" encoding="UTF-8"?> <svg xmlns="http://www.w3.org/2000/svg" width="131" height="40" viewBox="0 0 131 40" fill="none"><path d="M130.514 22.2829C130.477 22.5765 130.434 22.8701 130.4 23.1637C130.008 26.5052 127.444 29.1764 124.052 29.7506C122.654 29.9871 121.27 29.9481 119.992 29.2569C119.581 29.036 119.224 28.719 118.842 28.4436C118.784 28.3994 118.73 28.3475 118.61 28.2436C118.61 28.493 118.61 28.6749 118.61 28.8594C118.608 29.2647 118.402 29.4674 117.983 29.4674C117.015 29.4674 116.047 29.4622 115.079 29.4726C114.863 29.4726 114.807 29.4024 114.807 29.2023C114.812 22.0334 114.812 14.862 114.807 7.69307C114.807 7.46961 114.881 7.41504 115.1 7.41504C116.188 7.42543 117.274 7.42543 118.362 7.41504C118.594 7.41504 118.666 7.4722 118.664 7.70605C118.656 10.2862 118.658 12.8664 118.658 15.4466V15.7818C118.741 15.7246 118.792 15.6986 118.832 15.6623C119.72 14.8074 120.8 14.3449 122.035 14.2617C124.873 14.072 127.186 15.0646 128.914 17.268C129.76 18.3464 130.232 19.5858 130.394 20.9343C130.432 21.2358 130.469 21.5372 130.506 21.8386V22.2855L130.514 22.2829ZM118.664 21.9997C118.664 22.6623 118.717 23.3274 118.648 23.9822C118.581 24.6422 118.882 25.0631 119.37 25.4269C119.512 25.5308 119.656 25.6348 119.808 25.7257C120.731 26.2792 121.736 26.4195 122.793 26.2688C124.241 26.0609 125.409 25.4217 126.121 24.1329C126.553 23.3482 126.676 22.4986 126.609 21.6151C126.524 20.4848 126.1 19.5182 125.217 18.7647C124.505 18.1593 123.659 17.8501 122.729 17.7332C121.158 17.5357 119.861 18.0501 118.802 19.1674C118.717 19.2584 118.672 19.4169 118.669 19.5442C118.658 20.3627 118.664 21.1812 118.664 21.9997Z" fill="black"></path><path d="M18.877 33.9655C18.7037 34.1604 18.5916 34.2955 18.4716 34.4202C17.1806 35.7584 15.799 36.9848 14.1799 37.9462C12.7796 38.7777 11.2805 39.3753 9.64014 39.5234C6.0126 39.8508 3.20392 38.4814 1.23545 35.5089C0.517942 34.4254 0.152521 33.2094 0.0324919 31.918C-0.122212 30.2316 0.288554 28.6596 0.987389 27.137C4.08947 20.3682 7.45828 13.7216 10.9311 7.12697C11.6166 5.82519 12.3048 4.52341 13.0756 3.271C13.9612 1.8341 15.2468 0.823335 16.9032 0.314056C19.5519 -0.499233 22.2165 0.293264 24.0383 2.38755C24.6571 3.0995 25.1559 3.8868 25.5933 4.71049C29.0688 11.248 32.4456 17.8322 35.5931 24.5256C36.1825 25.778 36.764 27.0356 37.2948 28.314C37.6442 29.1507 37.8149 30.0446 37.7829 30.954C37.6629 34.5631 35.7344 37.6682 32.1709 39.0323C30.6025 39.6325 28.9915 39.7209 27.3457 39.4195C25.0385 38.9959 23.1074 37.8578 21.363 36.3924C20.5601 35.7168 19.8266 34.9659 19.0637 34.2461C18.9971 34.1838 18.9597 34.0954 18.869 33.9655H18.877ZM2.53176 31.297C2.5611 31.6348 2.56377 31.9751 2.62245 32.3077C3.11057 35.0308 5.4498 37.1667 8.56788 37.2342C9.85086 37.2628 11.0485 36.925 12.1821 36.3534C14.1159 35.379 15.6709 33.9551 17.1086 32.3961C17.1513 32.3493 17.1513 32.2064 17.1086 32.1492C16.8979 31.8582 16.6632 31.5854 16.4445 31.3022C14.9561 29.3716 13.6251 27.35 12.7769 25.0635C12.1928 23.4915 11.8033 21.8883 12.0674 20.1915C12.3661 18.2636 13.337 16.7565 15.0148 15.7042C16.5378 14.7506 18.2155 14.431 20.0053 14.6934C22.0405 14.9922 23.6489 15.951 24.7691 17.6399C25.8387 19.2483 25.9347 21.0204 25.628 22.8445C25.3399 24.5672 24.6464 26.1522 23.7876 27.6749C22.91 29.2313 21.8618 30.6734 20.7148 32.0505C20.5895 32.2012 20.5948 32.2869 20.7308 32.4195C21.0856 32.7624 21.419 33.1288 21.7764 33.4718C22.9153 34.5683 24.137 35.5661 25.5693 36.291C26.999 37.016 28.5114 37.3694 30.1171 37.1173C33.0245 36.66 35.2383 34.2903 35.2677 31.1956C35.2757 30.2005 35.0596 29.2417 34.6382 28.3348C33.6993 26.3185 32.7631 24.3022 31.7922 22.3014C29.0662 16.676 26.2495 11.0921 23.2861 5.58094C23.046 5.13662 22.774 4.70269 22.4646 4.29995C21.1629 2.59542 18.9144 2.07055 17.0153 3.01375C16.079 3.47886 15.4149 4.2142 14.9321 5.09765C13.9238 6.94249 12.9343 8.79771 11.9554 10.6581C8.98132 16.3226 6.15664 22.0572 3.43865 27.8437C2.92386 28.9377 2.50776 30.0602 2.52109 31.2944L2.53176 31.297ZM18.8904 30.2654C18.9837 30.1537 19.0477 30.0887 19.1011 30.0134C19.6372 29.278 20.2027 28.5635 20.7015 27.8048C21.9231 25.9443 22.9954 24.0164 23.2141 21.761C23.3314 20.5527 23.1101 19.412 22.2965 18.4532C21.2296 17.1982 19.7973 16.7955 18.2022 17.0293C15.8816 17.3671 14.4466 19.0561 14.5533 21.5011C14.596 22.4469 14.8334 23.359 15.1748 24.245C15.8843 26.0769 16.9379 27.7216 18.1222 29.291C18.3622 29.608 18.613 29.9198 18.8877 30.268L18.8904 30.2654Z" fill="black"></path><path d="M85.1659 28.3214C85.1659 28.5111 85.1659 28.6981 85.1659 28.8878C85.1606 29.262 84.9659 29.4621 84.5898 29.4621C83.5949 29.4647 82.6026 29.4621 81.6077 29.4673C81.437 29.4673 81.349 29.4231 81.3703 29.2438C81.3757 29.1944 81.3703 29.1451 81.3703 29.0957C81.3703 21.9918 81.3703 14.8878 81.3703 7.78649C81.3703 7.53878 81.5002 7.41493 81.7598 7.41493C82.8134 7.41493 83.8669 7.42272 84.9205 7.40973C85.1606 7.40713 85.2193 7.48248 85.2166 7.70594C85.2086 10.2861 85.2113 12.8663 85.2113 15.4465V15.7817C85.302 15.7219 85.3526 15.6959 85.39 15.6595C86.2782 14.8021 87.3584 14.3604 88.5907 14.2538C92.2343 13.9394 95.6938 16.0805 96.6834 19.6272C97.5396 22.7037 96.9554 25.4996 94.5815 27.7991C93.3439 28.9996 91.8022 29.631 90.0658 29.8154C88.8415 29.9454 87.6545 29.8492 86.5609 29.2594C86.1502 29.0385 85.7901 28.7241 85.4113 28.4513C85.3473 28.4045 85.2913 28.3474 85.2299 28.2928L85.1633 28.324L85.1659 28.3214ZM88.6921 17.6837C87.3371 17.6941 86.2675 18.2137 85.39 19.1362C85.2886 19.2427 85.2219 19.4272 85.2219 19.5753C85.2086 21.0459 85.2539 22.5192 85.1953 23.9899C85.1686 24.6291 85.4247 25.0422 85.8941 25.3982C86.0488 25.5152 86.2062 25.6295 86.3715 25.7282C87.2704 26.2635 88.2467 26.4064 89.2816 26.2739C90.3592 26.1362 91.3114 25.749 92.0663 24.9695C92.7571 24.2549 93.0852 23.3923 93.1652 22.4205C93.2559 21.3292 93.0505 20.3106 92.3837 19.4168C91.4634 18.1878 90.1485 17.7356 88.6894 17.6863L88.6921 17.6837Z" fill="black"></path><path d="M57.8707 28.2663C57.5666 28.5183 57.3319 28.7444 57.0652 28.9314C56.1449 29.5706 55.11 29.8565 53.9844 29.8669C51.8239 29.8824 49.9328 29.2121 48.3724 27.7414C47.1241 26.5643 46.3906 25.1144 46.1319 23.4463C45.8091 21.3728 46.1159 19.4058 47.3055 17.6285C48.5778 15.7265 50.4022 14.643 52.7041 14.3078C54.0191 14.1156 55.2994 14.2039 56.489 14.8223C56.9025 15.038 57.2625 15.3524 57.6466 15.6226C57.7053 15.6642 57.7587 15.7135 57.8707 15.8071C57.8707 15.5706 57.8707 15.394 57.8707 15.2173C57.876 14.8405 58.1054 14.617 58.4922 14.6144C59.4444 14.6118 60.3966 14.6144 61.3462 14.6144C61.6769 14.6144 61.6769 14.6144 61.6769 14.947C61.6769 19.5539 61.6769 24.1608 61.6769 28.7677C61.6769 28.934 61.6716 29.0977 61.6769 29.264C61.6849 29.4277 61.6103 29.4771 61.4476 29.4771C60.4366 29.4719 59.4257 29.4771 58.4148 29.4719C58.0867 29.4719 57.8814 29.2666 57.8707 28.9418C57.8627 28.7366 57.8707 28.5339 57.8707 28.2741V28.2663ZM57.8707 22.0614C57.8707 21.326 57.844 20.5881 57.8814 19.8553C57.9027 19.4396 57.756 19.1408 57.4493 18.8836C57.4039 18.8446 57.3612 18.8056 57.3186 18.7666C56.1876 17.8234 54.8806 17.5532 53.443 17.8286C52.0186 18.1015 50.9197 18.8186 50.3009 20.1334C49.9488 20.8817 49.8501 21.6794 49.9248 22.5005C50.0315 23.6568 50.4796 24.6441 51.4238 25.3717C52.4721 26.1798 53.6857 26.4604 55.006 26.3253C56.1023 26.2136 57.0118 25.7432 57.7106 24.9118C57.804 24.8026 57.86 24.6337 57.8627 24.4908C57.876 23.6801 57.8707 22.872 57.8707 22.0614Z" fill="black"></path><path d="M102.348 15.789C102.436 15.7344 102.476 15.7188 102.503 15.6903C103.461 14.7912 104.618 14.3495 105.933 14.2456C107.302 14.1364 108.609 14.3287 109.82 14.9783C111.479 15.8669 112.431 17.2259 112.602 19.0733C112.658 19.6891 112.695 20.3102 112.698 20.926C112.708 23.688 112.698 26.4501 112.708 29.2122C112.708 29.4538 112.636 29.5162 112.393 29.5136C111.313 29.5006 110.236 29.5032 109.155 29.5136C108.923 29.5136 108.854 29.4564 108.854 29.2252C108.862 26.554 108.859 23.8829 108.859 21.2118C108.859 20.5336 108.817 19.858 108.601 19.2059C108.291 18.2782 107.6 17.8027 106.64 17.6572C105.173 17.4364 103.911 17.8547 102.834 18.8369C102.668 18.9876 102.596 19.1487 102.596 19.3773C102.604 22.6357 102.596 25.8941 102.607 29.1524C102.607 29.407 102.535 29.472 102.279 29.4694C101.201 29.4564 100.121 29.4564 99.0409 29.4694C98.8009 29.472 98.7422 29.394 98.7422 29.1706C98.7475 24.4156 98.7475 19.6606 98.7422 14.9056C98.7422 14.6665 98.8142 14.5964 99.0596 14.6016C99.9265 14.6145 100.793 14.6067 101.66 14.6067C102.143 14.6067 102.348 14.812 102.351 15.2901C102.351 15.4382 102.351 15.5863 102.351 15.789H102.348Z" fill="black"></path><path d="M79.7015 17.776C78.952 17.7318 78.2451 17.6409 77.541 17.6591C76.3754 17.6902 75.3644 18.1216 74.5536 18.9531C74.4629 19.0466 74.4149 19.2155 74.4122 19.3506C74.4042 22.6245 74.4069 25.9011 74.4069 29.175C74.4069 29.3985 74.2922 29.5102 74.0628 29.5102C72.9825 29.5102 71.9049 29.5076 70.8247 29.5128C70.63 29.5128 70.558 29.4686 70.5606 29.266C70.566 24.4616 70.566 19.6572 70.5606 14.8528C70.5606 14.6527 70.6246 14.6008 70.8247 14.6034C71.7929 14.6112 72.7612 14.606 73.7294 14.6086C74.1455 14.6086 74.3562 14.8139 74.3589 15.2166C74.3589 15.3881 74.3589 15.5596 74.3589 15.8064C74.4736 15.7155 74.5349 15.6687 74.5909 15.6193C75.6365 14.7099 76.8421 14.185 78.2638 14.2188C78.6772 14.2292 79.088 14.302 79.4988 14.3643C79.5761 14.3773 79.6988 14.4865 79.6988 14.5514C79.7095 15.6271 79.7042 16.7003 79.6988 17.776C79.6988 17.789 79.6828 17.8046 79.6988 17.776H79.7015Z" fill="black"></path><path d="M64.1889 22.0103C64.1889 19.6536 64.1889 17.2969 64.1889 14.9402C64.1889 14.7202 64.2974 14.6102 64.5143 14.6102C65.6026 14.6102 66.6882 14.6154 67.7765 14.605C67.9818 14.605 68.0352 14.6647 68.0352 14.8596C68.0299 19.6484 68.0299 24.4372 68.0352 29.2234C68.0352 29.4286 67.9578 29.4702 67.7685 29.4702C66.6642 29.4624 65.5599 29.4624 64.4557 29.4702C64.2423 29.4702 64.1836 29.4079 64.1836 29.2026C64.1889 26.8043 64.1889 24.406 64.1889 22.0077V22.0103Z" fill="black"></path><path d="M63.5156 9.93527C63.5156 8.49577 64.6359 7.39926 66.1029 7.40186C67.5619 7.40186 68.7436 8.54253 68.7436 9.94305C68.7436 11.3462 67.5593 12.4895 66.1056 12.4869C64.6652 12.4869 63.5156 11.3514 63.5156 9.93527Z" fill="black"></path></svg> 