<?xml version="1.0" encoding="UTF-8"?> <svg xmlns="http://www.w3.org/2000/svg" width="295" height="48" viewBox="0 0 295 48" fill="none"><path d="M0.638672 4.49199C0.672047 4.42696 0.716547 4.36194 0.733234 4.29149C1.23942 2.30282 2.64673 1.19199 4.74936 1.17031C6.51824 1.15406 8.29267 1.14322 10.0615 1.17031C11.9862 1.20282 13.9219 1.16489 15.8243 1.35997C18.5777 1.64174 21.053 2.65504 22.8942 4.76834C25.9425 8.26884 25.6143 13.9097 22.2045 17.0905C21.8207 17.4481 21.4146 17.7841 20.9641 18.1797C21.2255 18.3314 21.4313 18.456 21.6482 18.5698C24.7966 20.228 26.2596 22.9048 26.3931 26.2752C26.5933 31.3851 23.5673 35.292 18.3608 36.6033C16.8867 36.9772 15.3292 37.1669 13.8051 37.194C9.58874 37.2752 5.37236 37.2211 1.15598 37.2211C0.983547 37.2211 0.811109 37.1994 0.638672 37.1886C0.638672 26.2915 0.638672 15.389 0.638672 4.49199H0.638672ZM7.82542 31.1087C9.9058 31.1087 11.886 31.1087 13.8663 31.1087C14.1556 31.1087 14.4448 31.1087 14.7285 31.0762C17.137 30.789 18.5444 29.5373 18.9393 27.2885C19.0339 26.7575 19.0227 26.2048 19.0005 25.6683C18.8948 23.4521 17.4263 21.7452 15.1679 21.4797C13.5548 21.29 11.9027 21.3713 10.2729 21.355C8.70986 21.3388 7.98117 21.9999 7.84211 23.5225C7.81986 23.7664 7.81986 24.0102 7.81986 24.2541C7.81986 26.2373 7.81986 28.2206 7.81986 30.2038C7.81986 30.4802 7.81986 30.7565 7.81986 31.1142L7.82542 31.1087ZM7.84767 15.6762C8.0368 15.6979 8.16474 15.725 8.29267 15.725C10.1005 15.725 11.9083 15.7358 13.7161 15.7142C14.0944 15.7142 14.4837 15.6383 14.8509 15.5353C16.5085 15.0693 17.532 13.7417 17.6766 11.7043C17.849 9.31465 16.6531 7.38016 13.9942 7.16883C12.6759 7.06588 11.3409 7.06046 10.017 7.13632C8.62642 7.21218 7.91999 7.87326 7.86436 9.23336C7.78649 11.3575 7.84211 13.4925 7.84211 15.6816L7.84767 15.6762Z" fill="black"></path><path d="M120.832 -7.62939e-05C121.549 0.297953 122.345 0.48761 122.968 0.915689C124.709 2.11323 125.26 4.31323 124.392 6.17727C123.524 8.05756 121.427 9.0817 119.335 8.64821C117.35 8.23638 115.87 6.4753 115.842 4.49204C115.814 2.38958 117.205 0.633914 119.291 0.135392C119.458 0.0974607 119.619 0.0432735 119.78 -7.62939e-05H120.821H120.832Z" fill="black"></path><path d="M261.139 14.577C263.308 12.1278 265.867 10.6972 269.182 10.7623C272.553 10.8273 275.067 12.182 276.558 15.3031C276.775 15.0647 276.92 14.9076 277.059 14.745C279.996 11.2716 283.778 10.1174 288.223 11.0765C291.566 11.7972 293.279 14.111 293.919 17.2376C294.141 18.3322 294.264 19.4647 294.269 20.581C294.302 25.9184 294.275 31.2559 294.297 36.5933C294.297 37.1677 294.136 37.3465 293.552 37.314C292.228 37.2436 290.887 37.3303 289.574 37.1731C288.056 36.9889 287.199 35.9972 287.043 34.5234C286.982 33.9652 286.954 33.4017 286.954 32.8435C286.938 28.8716 286.943 24.9051 286.916 20.9332C286.916 20.413 286.815 19.8874 286.687 19.3834C286.331 17.9908 285.48 17.3352 283.99 17.3135C282.326 17.2918 280.964 17.9583 279.89 19.1721C278.516 20.7273 277.849 22.6022 277.787 24.5908C277.659 28.5194 277.704 32.4534 277.676 36.382C277.671 37.2977 277.676 37.2977 276.736 37.2977C274.889 37.2977 273.037 37.2977 271.19 37.2977C270.389 37.2977 270.389 37.2977 270.389 36.5391C270.389 31.7273 270.395 26.9155 270.378 22.1036C270.378 21.3992 270.323 20.6785 270.172 19.9849C269.683 17.7362 267.831 16.7554 265.589 17.514C264.326 17.9421 263.436 18.8036 262.758 19.882C261.651 21.6376 261.161 23.5721 261.139 25.6096C261.1 29.2618 261.128 32.914 261.122 36.5662C261.122 37.2977 261.122 37.3032 260.355 37.3032C258.408 37.3032 256.466 37.2923 254.519 37.314C254.024 37.3194 253.852 37.1894 253.858 36.6854C253.874 28.4435 253.88 20.2071 253.874 11.9652C253.874 11.5155 253.997 11.3312 254.486 11.3475C255.448 11.38 256.411 11.3475 257.373 11.3637C259.342 11.3962 260.366 12.1765 260.922 14.0189C260.966 14.1598 261.028 14.2953 261.133 14.5825L261.139 14.577Z" fill="black"></path><path d="M159.135 44.9818C159.73 43.5838 160.264 42.202 160.91 40.869C161.416 39.8232 162.289 39.5197 163.535 39.8177C164.581 40.067 165.604 40.4084 166.661 40.598C168.536 40.9286 170.416 40.9557 172.246 40.3217C174.421 39.5685 175.812 37.6015 175.45 34.8705C175.305 34.9463 175.166 35.0005 175.055 35.0818C173.142 36.4852 170.939 36.8862 168.619 36.8049C162.54 36.599 158.334 32.5025 157.238 26.8453C156.577 23.4315 156.827 20.0882 158.368 16.9128C160.637 12.231 165.21 10.2153 170.099 10.6054C172.324 10.7842 174.349 11.4561 176.068 12.8921C176.134 12.9517 176.223 12.9897 176.351 13.0655C177.208 11.3207 178.776 11.0714 180.495 11.1256C180.84 11.1364 181.191 11.1148 181.535 11.1256C182.086 11.1473 182.809 10.9956 183.132 11.2719C183.41 11.5103 183.249 12.2527 183.249 12.7729C183.249 20.1857 183.243 27.6039 183.238 35.0168C183.238 37.6015 182.692 40.0399 181.152 42.1966C179.322 44.7542 176.724 46.2118 173.687 46.9488C168.742 48.1517 164.025 47.431 159.519 45.2039C159.419 45.1552 159.324 45.0902 159.135 44.971V44.9818ZM169.999 17.1783C167.796 17.1512 166.183 18.1049 165.376 20.1803C164.425 22.6404 164.52 25.1113 165.693 27.4847C166.717 29.5601 168.697 30.4867 171.273 30.2158C173.32 29.999 174.805 28.6552 175.361 26.4823C175.767 24.9 175.801 23.2961 175.545 21.6921C175.344 20.4296 174.927 19.2483 173.92 18.3596C172.875 17.4384 171.584 17.1892 169.999 17.1837V17.1783Z" fill="black"></path><path d="M106.159 23.1814C106.954 24.574 107.772 26.0316 108.623 27.4676C110.448 30.5454 112.294 33.6124 114.136 36.6903C114.247 36.8799 114.358 37.0696 114.497 37.308C114.302 37.3405 114.18 37.3839 114.052 37.3839C111.972 37.373 109.891 37.3568 107.817 37.3405C106.153 37.3297 104.952 36.5656 104.179 35.1676C102.855 32.7779 101.553 30.3774 100.24 27.9824C99.4561 26.5518 99.0834 26.3622 97.3257 26.5789C97.3146 26.8011 97.2923 27.0341 97.2923 27.2725C97.2923 30.4154 97.2756 33.5637 97.3034 36.7065C97.3034 37.2538 97.1366 37.4055 96.5859 37.4001C94.4666 37.373 92.3472 37.3784 90.2335 37.4001C89.7273 37.4001 89.5271 37.2863 89.5271 36.7499C89.5382 25.105 89.5382 13.4602 89.5215 1.81536C89.5215 1.28974 89.6884 1.1326 90.2112 1.15427C91.5574 1.20304 92.909 1.15428 94.2496 1.24098C96.202 1.36019 97.2534 2.41684 97.2645 4.31881C97.2979 9.26068 97.2812 14.2026 97.2867 19.1444C97.2867 19.9898 97.2867 19.9572 98.1545 19.9952C99.356 20.0494 100.207 19.6592 100.863 18.5971C102.315 16.2563 103.901 13.9966 105.414 11.6937C105.636 11.3577 105.87 11.2114 106.287 11.2168C108.807 11.2385 111.332 11.2277 113.857 11.2277H114.497C111.644 15.3188 108.873 19.3016 106.159 23.1922V23.1814Z" fill="black"></path><path d="M136.584 14.1947C136.767 13.9509 136.912 13.6799 137.135 13.474C139.026 11.6913 141.312 10.7376 143.932 10.6725C145.172 10.64 146.452 10.6942 147.659 10.9543C151.341 11.74 153.321 14.1568 153.989 17.6573C154.189 18.7193 154.262 19.8139 154.267 20.8923C154.306 26.1159 154.3 31.3395 154.312 36.5632C154.312 37.376 154.312 37.3814 153.449 37.376C152.276 37.3652 151.096 37.376 149.928 37.3164C147.904 37.208 146.641 36.0376 146.608 34.0597C146.535 30.2395 146.58 26.4248 146.552 22.6046C146.546 21.7647 146.507 20.9139 146.368 20.0903C146.079 18.3996 145.15 17.6627 143.404 17.6302C140.022 17.5652 137.491 19.6297 136.812 23.0652C136.651 23.8671 136.584 24.6962 136.578 25.5198C136.556 29.2263 136.567 32.9327 136.567 36.6391V37.3327C136.311 37.3489 136.122 37.376 135.933 37.376C133.797 37.376 131.656 37.3652 129.52 37.3868C129.013 37.3868 128.869 37.2351 128.869 36.742C128.869 28.4459 128.852 20.1553 128.824 11.8592C128.824 11.339 128.986 11.1765 129.514 11.1982C130.415 11.2361 131.322 11.1982 132.228 11.209C134.648 11.2253 135.572 11.8592 136.595 14.1947H136.584Z" fill="black"></path><path d="M72.7152 37.7471C67.3975 37.6224 63.0921 35.6717 60.4109 31.0387C56.9956 25.1485 58.6254 17.2697 64.0043 13.3682C66.9469 11.2387 70.3011 10.4692 73.9167 10.7185C76.9149 10.9244 79.635 11.8727 81.9656 13.7475C84.7024 15.953 86.2376 18.8249 86.6826 22.2278C87.1833 26.0589 86.4045 29.619 83.9348 32.7131C81.6041 35.6283 78.4557 37.1673 74.7288 37.6441C74.3839 37.6875 74.0391 37.7254 73.6942 37.7416C73.366 37.7579 73.0378 37.7416 72.7152 37.7416V37.7471ZM66.1236 24.2653C66.3016 25.181 66.374 26.1293 66.6799 27.0017C67.5699 29.5702 69.3666 31.1687 72.2313 31.3692C74.8623 31.5535 76.9983 30.5998 78.2499 28.3022C79.6906 25.6525 79.7017 22.8781 78.2721 20.2175C76.4198 16.7712 71.6083 15.9421 68.6212 18.4943C66.8468 20.0116 66.2683 22.0328 66.1348 24.2653H66.1236Z" fill="black"></path><path d="M28.5739 25.8331C28.585 17.1631 33.2297 11.8474 40.4109 10.8341C46.0457 10.0375 51.6416 12.1346 54.6509 16.8705C58.2387 22.506 57.3654 31.5336 50.4179 35.706C44.5049 39.2553 36.2557 38.1661 31.8447 33.2134C29.5529 30.6341 28.5795 27.5833 28.5684 25.8331H28.5739ZM36.1222 23.6764C36.1222 25.4971 36.328 26.6296 36.812 27.67C37.9245 30.0651 39.838 31.3764 42.5469 31.4035C45.1835 31.4306 47.2194 30.3035 48.3319 27.9356C49.5334 25.3779 49.5167 22.7607 48.1706 20.2464C46.2849 16.7188 41.3287 15.9223 38.3472 18.6316C36.6952 20.138 36.1445 22.0888 36.1167 23.6764H36.1222Z" fill="black"></path><path d="M251.13 24.2063C251.091 30.0097 247.903 34.7186 242.602 36.7506C237.179 38.826 230.693 37.6068 226.844 33.7541C224.585 31.489 223.4 28.7418 223.117 25.6097C222.844 22.5969 223.35 19.7358 224.952 17.1294C227.35 13.2225 231.004 11.2284 235.599 10.7949C238.77 10.4969 241.79 11.0334 244.544 12.6211C248.287 14.7777 250.351 18.0344 250.957 22.1959C251.052 22.8624 251.074 23.5344 251.13 24.2063ZM243.748 24.2713C243.565 23.323 243.47 22.3422 243.181 21.4265C242.324 18.7388 240.099 17.1186 237.234 16.9885C234.676 16.8693 232.301 18.3161 231.244 20.7112C230.226 23.025 230.209 25.3821 231.227 27.6959C233.051 31.8413 238.653 32.8004 241.757 29.522C243.147 28.0536 243.615 26.2437 243.754 24.2767L243.748 24.2713Z" fill="black"></path><path d="M219.218 27.9676C220.236 29.6149 221.232 31.1972 222.177 32.8011C222.255 32.9312 222.077 33.2834 221.921 33.4405C220.33 35.077 218.428 36.2908 216.236 36.9844C210.824 38.6967 205.718 38.1711 201.207 34.611C198.292 32.3134 196.851 29.1977 196.54 25.5834C196.273 22.5055 196.868 19.6065 198.587 16.9893C200.923 13.4292 204.366 11.5164 208.599 10.9312C211.608 10.5139 214.557 10.7849 217.338 12.0853C217.855 12.3292 218.35 12.6326 218.806 12.9686C220.136 13.9385 220.837 15.2445 220.87 16.8701C220.887 17.8238 220.87 18.7829 220.881 19.7366C220.887 20.0996 220.742 20.2297 220.369 20.2243C219.173 20.208 217.977 20.2514 216.787 20.2026C215.675 20.1592 214.785 19.6553 214.429 18.6041C214.123 17.6883 213.461 17.2981 212.604 17.076C209.333 16.2307 205.835 17.8834 204.505 20.9287C203.643 22.9011 203.548 24.9385 204.26 26.9651C205.206 29.6474 207.286 31.0346 210.084 31.4735C213.01 31.9341 215.491 30.8991 217.749 29.2031C218.233 28.84 218.673 28.4228 219.212 27.9676H219.218Z" fill="black"></path><path d="M116.809 11.293C118.416 11.293 119.963 11.1683 121.481 11.3255C123.333 11.5206 124.307 12.6964 124.429 14.5171C124.451 14.8693 124.457 15.227 124.457 15.5846C124.457 22.5856 124.451 29.5866 124.446 36.5821C124.446 36.8206 124.446 37.059 124.446 37.3299H116.809V11.2876V11.293Z" fill="black"></path><path d="M195.143 33.3236C195.143 35.7187 193.151 37.6369 190.693 37.6261C188.29 37.6152 186.293 35.6645 186.287 33.3182C186.282 30.934 188.273 28.9995 190.732 29.0049C193.207 29.0049 195.148 30.9123 195.143 33.329V33.3236Z" fill="black"></path></svg> 