<?xml version="1.0" encoding="UTF-8"?> <svg xmlns="http://www.w3.org/2000/svg" width="147" height="48" viewBox="0 0 147 48" fill="none"><path d="M21.0145 30.8019C21.7078 30.9376 21.9329 30.527 22.0967 29.9368C23.1773 26.029 24.3456 22.1505 25.3302 18.2152C25.7339 16.5985 26.4703 15.8269 27.9348 15.4529C30.0364 14.9141 32.0784 14.0929 34.2495 13.3579C34.7724 14.7051 35.0471 16.3163 35.1464 17.9457C35.7967 28.5621 29.2801 37.593 19.7453 38.8742C12.5668 39.8383 6.85447 36.7058 2.83831 30.0651C1.83054 28.399 1.26792 26.3901 0.586145 24.5021C0.210509 23.4574 0.314761 23.3694 1.33907 23.1036C5.94269 21.9085 10.5529 20.741 15.1483 19.5111C16.9387 19.0327 18.7077 18.4425 20.4734 17.8596C21.1022 17.6525 21.3156 17.8559 21.5059 18.5396C21.9511 20.1269 21.6334 21.6886 21.5242 23.2558C21.3669 25.5048 21.1584 27.7483 20.983 29.9973C20.9615 30.2612 21.0029 30.5307 21.0145 30.8019Z" fill="black"></path><path d="M33.4339 11.1923C31.8668 11.6103 30.3461 11.9952 28.8386 12.4277C27.8804 12.7027 26.9521 13.1078 25.9874 13.3387C25.6266 13.4249 25.0921 13.324 24.8207 13.0693C21.7577 10.1861 18.7311 7.25153 15.688 4.34083C15.261 3.93209 14.8308 3.40972 14.1077 3.9651C14.2086 4.15389 14.298 4.36101 14.4188 4.54064C16.1414 7.11225 17.8988 9.65634 19.5734 12.2646C20.0053 12.9373 20.2254 13.7951 20.4372 14.6034C20.4786 14.7592 20.0649 15.1973 19.7985 15.2926C17.3908 16.1486 14.9532 16.9056 12.5555 17.7909C8.87357 19.1491 5.21483 20.5898 1.54452 21.9883C1.13579 22.1441 0.713815 22.2523 0.295154 22.3842C-1.00716 15.9635 1.87879 5.24081 11.3806 1.27984C20.788 -2.6408 30.1707 2.95147 33.4339 11.1942V11.1923Z" fill="black"></path><path d="M53.812 20.8709V24.9986H45.4586C45.4586 25.9994 45.4603 26.8774 45.4586 27.7535C45.4536 29.2803 45.4735 30.8072 45.4255 32.3322C45.4024 33.0635 45.634 33.2743 46.2794 33.267C48.8973 33.234 51.5151 33.2523 54.133 33.2542C54.4573 33.2542 54.7817 33.2542 55.1821 33.2542C55.0828 34.6747 54.6708 35.8533 54.0453 36.9365C53.9311 37.1327 53.5886 37.2609 53.3503 37.2628C50.1814 37.2829 47.0108 37.2994 43.8419 37.2646C42.2897 37.2481 41.3481 36.119 41.3382 34.2898C41.315 29.5883 41.3233 24.8868 41.3183 20.1853C41.3167 18.1398 41.3084 16.0942 41.315 14.0487C41.3216 11.9665 42.2384 10.9327 44.1 10.9272C47.5453 10.9162 50.9906 10.9235 54.4358 10.9272C54.6526 10.9272 54.8694 10.9547 55.1639 10.9749C55.0349 12.3367 54.6509 13.5575 54.0023 14.659C53.8815 14.8643 53.4843 14.9541 53.2129 14.956C50.8979 14.9798 48.5828 14.9926 46.2678 14.956C45.6092 14.945 45.4106 15.1668 45.4388 15.8999C45.4917 17.271 45.4901 18.6493 45.4338 20.0204C45.404 20.7481 45.6555 20.891 46.243 20.8837C48.4472 20.8544 50.653 20.8727 52.8572 20.8727C53.1534 20.8727 53.4496 20.8727 53.8087 20.8727L53.812 20.8709Z" fill="black"></path><path d="M122.28 10.3267C122.28 11.1808 122.28 11.7508 122.28 12.3191C122.274 20.0412 122.252 27.7634 122.28 35.4837C122.283 36.3122 122.063 36.8181 121.398 37.115C120.594 37.4742 119.788 37.8262 118.893 38.2203C118.827 37.6374 118.782 37.2579 118.731 36.8089C115.009 38.4732 111.433 38.8489 108.709 34.9026C106.528 31.7426 106.368 28.1446 108.105 24.7372C110.351 20.3345 114.031 19.5976 118.304 20.7139C118.304 18.7472 118.304 16.8629 118.304 14.9786C118.304 14.4599 118.362 13.9302 118.292 13.4243C118.148 12.3924 118.577 11.8187 119.396 11.4906C120.288 11.1313 121.18 10.7721 122.282 10.3267H122.28ZM118.302 28.8155H118.29C118.29 27.4738 118.314 26.1321 118.272 24.7922C118.262 24.4971 118.092 24.0627 117.878 23.9417C115.587 22.6366 112.734 23.7584 111.67 26.3538C111.109 27.7249 110.978 29.1784 111.172 30.6502C111.37 32.1606 111.916 33.473 113.272 34.1383C114.935 34.954 116.507 34.4481 118.024 33.6196C118.191 33.5279 118.284 33.11 118.289 32.8387C118.315 31.4989 118.3 30.1572 118.3 28.8155H118.302Z" fill="black"></path><path d="M73.9467 20.9264C74.1055 20.8842 74.1601 20.8549 74.2131 20.8586C76.2849 20.9649 78.3087 20.6185 80.354 20.2757C84.1732 19.6342 87.6731 22.1893 88.7504 26.1539C89.9451 30.5493 88.383 35.029 84.9742 36.8967C83.2763 37.826 81.4462 38.0478 79.5762 37.9525C79.0351 37.925 78.494 37.8554 77.8619 37.7967C77.8619 39.7414 77.8619 41.5964 77.8619 43.4513C77.8619 43.6034 77.8619 43.7574 77.8619 43.9095C77.8635 46.1952 77.7974 46.3088 75.8282 47.0713C75.3615 47.251 74.8767 47.3756 74.3951 47.5076C74.2693 47.5424 74.1304 47.5131 73.9434 47.5131V20.9282L73.9467 20.9264ZM77.8602 29.1544H77.8536C77.8536 30.6794 77.8371 32.2026 77.8685 33.7276C77.8735 34.008 78.0075 34.4406 78.1928 34.5341C80.4483 35.6797 83.604 34.338 84.577 31.8158C85.2555 30.0562 85.2439 28.2453 84.6333 26.4637C84.0409 24.7371 82.8444 23.7436 81.2178 23.5658C80.3077 23.4668 79.3677 23.6905 78.4411 23.7858C77.9628 23.8353 77.8387 24.1578 77.8503 24.6711C77.8801 26.1649 77.8602 27.6587 77.8602 29.1526V29.1544Z" fill="black"></path><path d="M143.521 38.248C143.475 37.4635 143.444 36.932 143.41 36.3747C142.677 36.8238 142.035 37.4048 141.304 37.6358C138.31 38.5816 133.957 37.8173 132.214 33.0241C130.44 28.1467 132.525 22.5507 136.762 20.7691C138.56 20.0121 140.374 20.0708 142.176 20.7985C142.51 20.9341 142.843 21.0734 143.175 21.2109C143.162 21.1211 143.147 21.0313 143.134 20.9414C143.523 20.7893 143.905 20.5419 144.302 20.507C145.095 20.4374 145.896 20.4869 146.791 20.4869C146.813 20.8131 146.847 21.1046 146.847 21.3942C146.846 26.1873 146.829 30.9786 146.844 35.7717C146.846 36.3399 146.687 36.7138 146.242 36.9338C145.38 37.3627 144.509 37.7714 143.521 38.2462V38.248ZM142.891 28.9055H142.876C142.876 27.6225 142.891 26.3413 142.864 25.06C142.859 24.7961 142.767 24.402 142.596 24.2939C140.736 23.1061 138.597 23.1354 137.131 24.8621C135.691 26.5539 135.421 28.6398 135.742 30.8411C136.098 33.2863 137.725 34.7526 139.932 34.5546C140.707 34.485 141.456 34.0872 142.216 33.8325C142.739 33.6583 142.926 33.2807 142.904 32.6612C142.863 31.4112 142.891 30.1593 142.891 28.9074V28.9055Z" fill="black"></path><path d="M105.466 30.0769H94.668C94.4678 31.4791 95.2505 33.105 96.4684 33.84C97.8254 34.6611 99.2865 34.7198 100.726 34.267C102.093 33.8381 103.412 33.2241 104.883 32.6394C104.883 33.7135 104.901 34.7912 104.865 35.869C104.858 36.0486 104.653 36.3016 104.486 36.3786C102.149 37.4637 99.7515 38.2445 97.175 37.8596C93.4435 37.3024 90.7363 33.9884 90.5625 29.7287C90.2349 21.6839 96.8523 18.918 101.18 20.6776C103.893 21.7811 105.214 24.0374 105.452 27.1369C105.523 28.068 105.464 29.0138 105.464 30.0751L105.466 30.0769ZM94.7408 27.5438H101.615C101.861 25.6358 100.549 23.8944 98.8033 23.746C96.6041 23.559 94.7938 25.2197 94.7408 27.5438Z" fill="black"></path><path d="M64.6612 25.7801C65.7964 24.2661 66.8273 22.8364 67.9211 21.469C68.171 21.1556 68.631 20.9191 69.0116 20.888C70.0194 20.8091 71.0354 20.8605 72.2484 20.8605C70.304 23.4632 68.4721 25.9139 66.594 28.4287C68.7038 31.3064 70.7955 34.1621 73.0774 37.2762C72.0399 37.2762 71.2257 37.1827 70.4364 37.2964C68.8925 37.5182 67.797 36.994 66.9266 35.4946C66.1621 34.1804 65.1411 33.0477 64.1581 31.7353C62.9683 33.3428 61.8249 34.8219 60.7559 36.3634C60.2909 37.0361 59.806 37.3514 59.025 37.2762C58.1628 37.1919 57.2874 37.2561 56.2168 37.2561C57.4298 35.5899 58.4938 34.1199 59.5661 32.6554C60.3124 31.6363 61.0537 30.6117 61.8249 29.6164C62.1558 29.1893 62.1509 28.8832 61.8199 28.4396C60.1684 26.231 58.5467 23.9911 56.9184 21.7623C56.748 21.5295 56.5908 21.2839 56.2979 20.855C57.4877 20.855 58.5236 20.9503 59.5363 20.8293C60.6913 20.6919 61.4211 21.1684 62.0648 22.1985C62.8293 23.4193 63.7411 24.5263 64.6612 25.7782V25.7801Z" fill="black"></path><path d="M125.351 20.8867H129.237V37.2585C128.073 37.2585 126.921 37.2841 125.773 37.2255C125.629 37.2182 125.396 36.7636 125.389 36.5125C125.348 34.8958 125.353 33.2755 125.351 31.657C125.348 28.4494 125.351 25.2436 125.351 22.036C125.351 21.6785 125.351 21.323 125.351 20.8867Z" fill="black"></path><path d="M129.69 14.837C129.677 16.307 128.633 17.4269 127.296 17.4031C125.985 17.3793 124.943 16.186 124.969 14.7417C124.997 13.2716 126.047 12.1481 127.374 12.1682C128.679 12.1884 129.704 13.3688 129.69 14.837Z" fill="black"></path></svg> 