<?xml version="1.0" encoding="UTF-8"?> <svg xmlns="http://www.w3.org/2000/svg" width="238" height="48" viewBox="0 0 238 48" fill="none"><path d="M5.34402 34.589C4.49591 34.719 3.70278 34.8567 2.90571 34.9638C2.55233 35.0097 2.17539 35.0671 1.82987 35.0059C0.930714 34.8414 0.432057 34.1338 0.475247 33.1852C0.510585 32.4661 1.09562 31.9038 1.95159 31.7853C2.93712 31.6476 3.92266 31.506 4.90819 31.3836C5.25372 31.3416 5.37936 31.2001 5.37936 30.852C5.36758 25.6386 5.37151 20.4252 5.37151 15.2118C5.37151 15.0856 5.34795 14.9632 5.33224 14.7681L0.812921 15.0512C1.47649 14.2862 2.09686 13.5709 2.71331 12.8595C6.33741 8.69792 9.96936 4.54021 13.5856 0.37102C13.829 0.0917991 14.0725 0 14.4376 0C21.5602 0.00764989 28.6867 0.00764989 35.8092 0C36.1194 0 36.3668 0.0344282 36.5984 0.290699C40.8704 4.95713 45.1581 9.61208 49.4379 14.2709C49.5439 14.3894 49.646 14.5118 49.7912 14.684C48.5937 14.7911 47.4629 14.9211 46.3242 14.99C45.0638 15.0665 45.0638 15.0397 45.0638 16.2598C45.0756 23.0759 45.0874 29.8919 45.1031 36.708C45.1031 37.3238 45.1109 37.9396 45.1384 38.5516C45.1541 38.8691 45.0363 39.0182 44.7144 39.0871C39.0839 40.3264 33.4612 41.5962 27.8189 42.7896C27.1868 42.9235 26.4525 42.6558 25.7733 42.5372C21.9882 41.8793 18.2031 41.2099 14.418 40.5444C11.5478 40.0395 8.67757 39.5193 5.80342 39.0297C5.43433 38.9685 5.3558 38.8193 5.35973 38.4904C5.37936 37.3888 5.36758 36.2872 5.36366 35.1895C5.36366 35.0173 5.34795 34.8414 5.33617 34.5851L5.34402 34.589ZM27.6501 41.5159C27.6736 41.2673 27.7011 41.0952 27.7011 40.9231C27.7011 32.3934 27.7051 23.8638 27.6894 15.3342C27.6894 15.0588 27.5559 14.726 27.3674 14.5195C24.3911 11.2492 21.3953 7.99031 18.3994 4.73528C17.8811 4.16919 17.355 3.61075 16.8014 3.01789C16.6404 3.18618 16.5147 3.30475 16.3969 3.43862C13.3304 6.95757 10.2638 10.4727 7.21301 14.0031C7.03239 14.2135 6.90674 14.5463 6.90674 14.8217C6.88711 20.0504 6.89497 25.2752 6.89497 30.5039C6.89497 30.676 6.91067 30.852 6.91852 31.0203C7.00883 31.0394 7.05988 31.0624 7.10307 31.0585C9.16837 30.764 11.2376 30.4657 13.3029 30.175C14.3709 30.0258 15.435 29.8384 16.5069 29.7542C17.4414 29.6816 18.0068 30.1903 18.0774 31.0126C18.1599 31.9498 17.6966 32.6115 16.8171 32.7606C15.7412 32.9442 14.6575 33.0972 13.5778 33.2694C11.5007 33.5983 9.42359 33.9349 7.34258 34.2638C7.00491 34.3174 6.87533 34.4589 6.88711 34.807C6.9146 35.6638 6.92245 36.5244 6.88711 37.3812C6.87141 37.7828 7.04417 37.9128 7.40147 37.9779C9.47463 38.3374 11.5478 38.7046 13.6209 39.068C17.5866 39.7679 21.5484 40.4641 25.5141 41.164C26.2091 41.2864 26.908 41.4012 27.6462 41.5274L27.6501 41.5159ZM31.7218 32.906C31.8474 32.9213 31.9338 32.9481 32.0124 32.9366C33.4965 32.6841 34.9807 32.4355 36.4571 32.1563C36.5749 32.1333 36.7241 31.8924 36.7241 31.7547C36.7398 29.911 36.7241 28.0713 36.7319 26.2276C36.7319 25.8451 36.5867 25.7648 36.2176 25.8222C34.8904 26.0173 33.5633 26.2123 32.2322 26.3539C31.7885 26.3998 31.6786 26.5681 31.6825 26.9582C31.6943 28.7827 31.6825 30.611 31.6825 32.4355C31.6825 32.5923 31.7061 32.7492 31.7179 32.9098L31.7218 32.906ZM31.71 21.2284H31.6865C31.6865 22.1808 31.6943 23.1371 31.6825 24.0895C31.6786 24.4146 31.8082 24.5255 32.1302 24.4835C33.5083 24.2999 34.8865 24.1086 36.2686 23.948C36.6652 23.9021 36.7437 23.7338 36.7437 23.3857C36.728 21.6071 36.7241 19.8285 36.7437 18.0499C36.7476 17.6024 36.5945 17.5029 36.1587 17.5527C34.859 17.6942 33.5554 17.8166 32.2479 17.9084C31.8357 17.9352 31.6982 18.0843 31.7022 18.4668C31.7179 19.3886 31.7061 20.3104 31.7061 21.2323L31.71 21.2284ZM42.7786 16.9215C41.3848 17.0669 40.1165 17.1855 38.8522 17.3423C38.7501 17.3538 38.597 17.5833 38.597 17.7133C38.5813 19.5569 38.5891 21.4044 38.5852 23.248C38.5852 23.554 38.7266 23.6458 39.021 23.6075C40.0733 23.466 41.1217 23.3092 42.1779 23.2097C42.704 23.16 42.8179 22.9191 42.8022 22.4524C42.7669 21.4809 42.7865 20.5093 42.7826 19.5416C42.7826 18.704 42.7826 17.8663 42.7826 16.9292L42.7786 16.9215ZM42.7119 24.9195C41.424 25.1031 40.2147 25.2829 39.0014 25.4473C38.6991 25.4894 38.5774 25.6118 38.5774 25.9178C38.5852 27.7308 38.5891 29.54 38.5774 31.3531C38.5774 31.7509 38.7423 31.7968 39.1035 31.7279C40.144 31.529 41.1884 31.3492 42.2368 31.2001C42.6334 31.1427 42.7512 30.9859 42.7472 30.6072C42.7276 28.8936 42.7394 27.18 42.7394 25.4626C42.7394 25.3058 42.7237 25.149 42.708 24.9195H42.7119Z" fill="black"></path><path d="M106.229 24.3491C107.525 22.1306 109.461 20.922 112.044 20.922C114.683 20.922 116.481 22.2377 117.506 24.6933C117.686 24.4294 117.796 24.2726 117.902 24.1158C119.281 22.0503 121.228 20.9105 123.768 20.922C126.085 20.9334 128.135 21.9929 129.242 24.5901C129.705 25.6725 129.945 26.8162 129.949 27.9904C129.968 31.6968 129.96 35.4032 129.976 39.1134C129.976 39.4653 129.878 39.603 129.497 39.5915C128.747 39.5647 127.997 39.5609 127.251 39.5915C126.811 39.6106 126.729 39.4385 126.729 39.056C126.737 35.5906 126.76 32.1252 126.705 28.6636C126.694 27.8069 126.513 26.9233 126.246 26.1048C125.249 23.0945 121.707 22.9224 119.842 24.6054C118.633 25.6993 118.193 27.0686 118.193 28.6216C118.193 32.0525 118.193 35.4873 118.193 38.9183C118.193 39.362 117.969 39.5851 117.521 39.5877C116.874 39.5877 116.222 39.5571 115.574 39.5992C115.103 39.6259 114.973 39.4615 114.977 39.0254C114.993 35.7895 115.009 32.5498 114.969 29.3139C114.958 28.3538 114.887 27.3632 114.639 26.4414C113.748 23.0907 110.061 22.8115 108.047 24.7545C106.975 25.7911 106.39 27.0533 106.382 28.5298C106.366 31.9952 106.378 35.4567 106.378 38.9221C106.378 39.3684 106.141 39.5915 105.668 39.5915C105 39.5915 104.337 39.5686 103.669 39.5992C103.241 39.6183 103.143 39.4653 103.143 39.0751C103.155 34.6229 103.159 30.1707 103.143 25.7184C103.143 24.4409 103.088 23.1634 103.037 21.8858C103.021 21.5186 103.108 21.3542 103.524 21.3733C104.172 21.4039 104.823 21.3886 105.471 21.3771C105.766 21.3695 105.884 21.4727 105.891 21.7673C105.903 22.3831 105.946 22.9951 105.986 23.6071C106.001 23.8289 106.037 24.0469 106.064 24.265L106.221 24.3644L106.229 24.3491Z" fill="black"></path><path d="M58.2189 26.853C58.2189 22.8368 58.2189 18.8244 58.2189 14.8082C58.2189 14.3722 58.4348 14.1529 58.8667 14.1504C59.5499 14.1504 60.2331 14.1733 60.9124 14.1427C61.3836 14.1198 61.5446 14.2536 61.5406 14.7356C61.521 17.9065 61.5406 21.0812 61.521 24.252C61.521 24.6919 61.6388 24.8411 62.0982 24.8411C65.9932 24.8258 69.8882 24.8258 73.7833 24.8411C74.278 24.8411 74.3919 24.6613 74.3879 24.2138C74.3722 21.0582 74.3879 17.8988 74.3683 14.7432C74.3683 14.2728 74.5057 14.1159 74.9887 14.1389C75.719 14.1733 76.4532 14.158 77.1835 14.1465C77.5291 14.1389 77.6547 14.2766 77.6508 14.6094C77.6351 15.3208 77.6508 16.0322 77.6508 16.7475C77.6508 24.1296 77.6508 31.5118 77.6508 38.8939C77.6508 39.3504 77.4152 39.5786 76.944 39.5786C76.2765 39.5786 75.609 39.548 74.9494 39.5901C74.4665 39.6207 74.3722 39.4371 74.3762 39.0087C74.3919 35.4323 74.384 31.8522 74.384 28.2759C74.384 27.5797 74.384 27.5759 73.6694 27.5759C69.8411 27.5759 66.0129 27.5759 62.1846 27.5759C61.5367 27.5759 61.5328 27.5797 61.5328 28.2262C61.5328 31.8216 61.5249 35.4132 61.5446 39.0087C61.5446 39.4868 61.3954 39.6168 60.9242 39.5939C60.2096 39.5595 59.491 39.5595 58.7764 39.5939C58.3367 39.613 58.2071 39.4791 58.211 39.0507C58.2267 35.6695 58.2189 32.2844 58.2189 28.8993C58.2189 28.2185 58.2189 27.5415 58.2189 26.8606V26.853Z" fill="black"></path><path d="M174.311 20.9904C175.402 20.9904 176.431 20.9713 177.46 21.0134C177.601 21.021 177.805 21.3117 177.856 21.5068C178.414 23.534 178.963 25.5612 179.486 27.5961C180.204 30.396 180.899 33.2035 181.61 36.0072C181.645 36.141 181.704 36.2672 181.802 36.5235C181.908 36.294 181.983 36.1793 182.018 36.0569C183.322 31.8877 184.621 27.7185 185.925 23.5493C186.153 22.8226 186.416 22.1073 186.632 21.3806C186.722 21.0746 186.879 20.9713 187.197 20.9828C187.88 21.0019 188.564 21.0019 189.243 20.9828C189.529 20.9751 189.663 21.0861 189.738 21.3385C191.214 26.1962 192.694 31.0539 194.174 35.9115C194.225 36.076 194.276 36.2367 194.449 36.4088C194.5 36.2902 194.579 36.1755 194.602 36.0531C195.348 32.0598 196.687 28.2157 197.775 24.3066C198.05 23.3236 198.332 22.3483 198.639 21.3729C198.686 21.2238 198.866 21.0096 198.992 21.0057C199.986 20.9751 200.983 20.9904 202.051 20.9904C201.902 21.4762 201.776 21.9046 201.635 22.3292C199.777 27.9212 197.92 33.5095 196.071 39.1054C195.957 39.4496 195.808 39.6026 195.415 39.5873C194.685 39.5567 193.951 39.5644 193.22 39.5873C192.918 39.595 192.781 39.4879 192.69 39.2086C191.19 34.4734 189.412 29.8222 188.265 24.9837C188.23 24.8383 188.179 24.6968 188.136 24.5515H187.998C187.908 24.9186 187.833 25.2897 187.719 25.6492C186.698 28.8545 185.678 32.0598 184.637 35.2575C184.217 36.5503 183.73 37.824 183.306 39.113C183.192 39.4649 183.039 39.6103 182.646 39.5911C181.983 39.5605 181.311 39.5491 180.652 39.5911C180.181 39.6256 179.984 39.4573 179.855 39.0289C178.873 35.8083 177.868 32.5991 176.875 29.3824C176.062 26.7546 175.249 24.1269 174.436 21.4991C174.389 21.35 174.362 21.197 174.307 20.9943L174.311 20.9904Z" fill="black"></path><path d="M174.21 39.5781C173.986 39.5781 173.829 39.5781 173.672 39.5781C172.875 39.5781 172.074 39.5437 171.277 39.5896C170.778 39.6202 170.598 39.4289 170.449 38.9929C169.644 36.6176 168.796 34.2538 167.987 31.8785C167.853 31.4845 167.657 31.3507 167.241 31.3545C164.414 31.366 161.583 31.3698 158.756 31.3545C158.332 31.3545 158.143 31.4998 158.014 31.8862C157.216 34.2844 156.392 36.6712 155.595 39.0656C155.469 39.4404 155.308 39.6087 154.865 39.5934C153.926 39.5552 152.984 39.5819 151.959 39.5819C152.089 39.2109 152.183 38.924 152.285 38.641C155.147 30.4671 158.01 22.2894 160.86 14.1117C160.99 13.7445 161.143 13.5991 161.555 13.6106C162.553 13.6412 163.554 13.6412 164.551 13.6106C164.967 13.5991 165.164 13.7215 165.301 14.1155C167.158 19.4513 169.035 24.7794 170.908 30.1114C171.948 33.0757 172.989 36.0362 174.029 39.0005C174.088 39.165 174.135 39.3295 174.218 39.5819L174.21 39.5781ZM158.94 28.83H167.052C165.674 24.7106 164.312 20.6294 162.973 16.6323C161.653 20.6255 160.303 24.7067 158.936 28.83H158.94Z" fill="black"></path><path d="M148.631 36.5959C148.792 37.2461 148.977 37.8963 149.102 38.558C149.126 38.6804 148.922 38.9405 148.777 38.9788C147.646 39.2848 146.515 39.6329 145.361 39.8126C143.684 40.0727 141.98 40.1072 140.307 39.7247C136.84 38.9291 134.661 36.8292 133.805 33.4785C133.075 30.6213 133.318 27.8138 134.696 25.1784C136.306 22.0993 138.937 20.5732 142.506 20.5693C146.813 20.5693 149.232 23.2506 150.017 26.8269C150.269 27.9821 150.402 29.1487 150.253 30.3382C150.202 30.7399 150.084 30.8431 149.684 30.8431C145.741 30.8317 141.795 30.8355 137.853 30.8355C137.57 30.8355 137.28 30.8011 137.009 30.8546C136.876 30.8814 136.679 31.065 136.671 31.1874C136.495 34.1517 138.741 36.8598 141.795 37.3035C143.927 37.6133 146.036 37.4259 148.078 36.7106C148.219 36.6609 148.356 36.6112 148.498 36.5653C148.51 36.5614 148.529 36.5729 148.631 36.5959ZM136.762 28.4181C136.824 28.4449 136.856 28.4717 136.883 28.4717C140.162 28.4793 143.44 28.4793 146.719 28.4908C147.033 28.4908 147.08 28.3187 147.057 28.0815C147.01 27.6493 146.982 27.2094 146.884 26.7849C146.491 25.1057 145.679 23.702 143.884 23.1474C139.6 21.8239 136.989 25.2931 136.762 28.4181Z" fill="black"></path><path d="M99.63 30.3714C99.5986 32.4713 99.1706 34.4564 97.9338 36.2121C96.2336 38.6256 93.8032 39.7999 90.8505 39.9644C87.9685 40.125 85.4752 39.2529 83.5473 37.0957C82.2202 35.6078 81.5762 33.833 81.3681 31.8861C81.1404 29.7518 81.3838 27.6825 82.3694 25.7509C83.8496 22.8477 86.3154 21.2986 89.6137 20.9888C92.1737 20.7478 94.506 21.3025 96.4888 22.9472C98.2675 24.4236 99.1588 26.3743 99.4808 28.589C99.5672 29.178 99.5829 29.7785 99.63 30.3752V30.3714ZM84.6114 30.4517C84.6585 31.8631 84.8823 33.1942 85.5262 34.4297C86.4607 36.2159 87.8742 37.4169 89.9867 37.5929C92.1462 37.7727 93.7717 36.8164 94.934 35.0876C95.7114 33.9286 96.0726 32.6281 96.1865 31.2511C96.3553 29.2431 95.9705 27.3612 94.8711 25.6438C92.8608 22.4958 88.2826 22.6833 86.2762 25.2689C85.0708 26.8219 84.6899 28.6119 84.6075 30.4556L84.6114 30.4517Z" fill="black"></path><path d="M214.868 37.2267C214.762 37.3376 214.648 37.4485 214.546 37.5633C213.187 39.0894 211.463 39.8697 209.398 39.973C207.69 40.061 206.116 39.7205 204.828 38.5539C202.311 36.2743 202.621 32.0668 205.452 29.9784C206.92 28.8921 208.621 28.349 210.411 28.0965C211.671 27.9206 212.955 27.8709 214.232 27.7944C214.593 27.7752 214.769 27.6796 214.714 27.3162C214.616 26.6813 214.593 26.0234 214.4 25.4152C213.925 23.912 212.551 23.0208 210.823 22.9558C208.95 22.887 207.195 23.2542 205.554 24.1492C205.499 24.1798 205.436 24.1989 205.287 24.2601C205.052 23.5946 204.812 22.952 204.616 22.2941C204.592 22.2138 204.8 22.0225 204.938 21.946C206.061 21.3187 207.278 20.9477 208.546 20.7412C210.117 20.4887 211.699 20.4428 213.246 20.8253C215.916 21.487 217.345 23.2733 217.828 25.8322C217.966 26.5589 218.024 27.3086 218.032 28.0468C218.06 30.1352 218.009 32.2236 218.052 34.3121C218.087 35.9568 218.229 37.6015 218.303 39.2462C218.307 39.3495 218.127 39.5522 218.028 39.5561C217.231 39.5828 216.43 39.5828 215.633 39.5561C215.512 39.5522 215.315 39.3839 215.292 39.2654C215.201 38.8255 215.166 38.3703 215.107 37.9228C215.08 37.7048 215.036 37.4829 215.001 37.2649L214.86 37.219L214.868 37.2267ZM214.809 31.9368C214.809 31.4663 214.789 30.9997 214.817 30.5292C214.836 30.1582 214.711 29.9975 214.318 30.0052C212.755 30.0396 211.2 30.1008 209.693 30.5636C207.454 31.2521 206.485 32.5182 206.551 34.6831C206.591 35.9568 207.4 37.0086 208.648 37.4064C210.729 38.072 213.226 37.0354 214.294 35.0962C214.848 34.0902 214.84 33.0192 214.813 31.9329L214.809 31.9368Z" fill="black"></path><path d="M237.986 20.9878C237.543 22.1161 237.138 23.1527 236.726 24.1893C234.896 28.7639 233.094 33.35 231.221 37.9132C230.361 40.0054 229.309 42.0135 227.825 43.7653C226.392 45.4559 224.695 46.7947 222.505 47.4717C222.069 47.6056 221.912 47.4946 221.806 47.0968C221.605 46.351 221.366 45.6166 221.138 44.8593C223.145 44.1402 224.75 42.9697 225.952 41.3135C226.419 40.6709 226.78 39.9518 227.173 39.2634C227.428 38.8158 227.444 38.3569 227.236 37.8673C226.364 35.84 225.52 33.8013 224.656 31.7703C223.211 28.3661 221.759 24.9619 220.31 21.5577C220.243 21.3971 220.192 21.2326 220.105 20.9916C221.115 20.9916 222.057 21.0299 222.999 20.9763C223.6 20.9419 223.855 21.1484 224.055 21.6954C225.583 25.8646 227.149 30.0185 228.697 34.1762C228.897 34.7117 229.042 35.2701 229.211 35.8133H229.344C229.399 35.6756 229.462 35.5417 229.509 35.4002C231.092 30.7567 232.674 26.1132 234.245 21.4659C234.37 21.0949 234.543 20.9648 234.951 20.9763C235.929 21.0069 236.911 20.9878 237.994 20.9878H237.986Z" fill="black"></path><path d="M23.2282 20.2333C23.2203 22.8649 22.6314 24.6894 21.2257 26.227C19.184 28.4608 15.8465 28.6826 13.5417 26.7051C11.5942 25.0336 10.8049 22.8649 10.8246 20.3863C10.8364 18.6919 11.2997 17.1275 12.3245 15.7467C14.6764 12.572 18.9209 12.4878 21.4142 15.5631C22.6667 17.1083 23.2242 18.8831 23.2321 20.2371L23.2282 20.2333ZM17.4053 14.4194C15.7601 14.3965 14.7824 14.8287 13.9579 15.5898C11.2879 18.0608 11.2722 22.907 13.9108 25.5309C15.8975 27.5045 18.6421 27.428 20.5111 25.3435C22.7845 22.8075 22.6117 18.2444 20.1459 15.8308C19.2546 14.9587 18.2063 14.4347 17.4053 14.4156V14.4194Z" fill="black"></path><path d="M16.8333 25.2744C15.8674 25.1673 15.1921 24.7122 14.6581 24.0351C13.3074 22.3292 13.1385 19.56 14.2811 17.724C14.7209 17.0125 15.3059 16.4694 16.2404 16.2476C14.9918 17.6092 14.7052 19.2042 14.8151 20.8796C14.9251 22.5396 15.3845 24.0887 16.8372 25.2782L16.8333 25.2744Z" fill="black"></path></svg> 