<?xml version="1.0" encoding="UTF-8"?> <svg xmlns="http://www.w3.org/2000/svg" width="264" height="45" viewBox="0 0 264 45" fill="none"><path d="M36.4401 38.8684C34.8175 40.7923 33.1873 42.7245 31.4466 44.7919C29.7516 42.7667 28.1252 40.8302 26.5179 38.9148C17.8487 45.2306 9.55282 44.6105 3.8356 37.3453C-0.914146 31.3122 -1.91209 20.8912 5.08494 13.0777C3.51184 11.158 1.92352 9.22149 0 6.87151C3.61469 6.87151 6.75325 6.93902 9.8842 6.82933C10.8364 6.79558 11.8801 6.47493 12.7066 5.95177C25.1162 -1.91666 37.5105 -1.99682 49.9771 5.79145C50.9636 6.40742 52.1977 6.77026 53.3366 6.82511C56.3533 6.96433 59.3776 6.87151 62.8971 6.87151C61.0269 9.15821 59.4804 11.0483 57.835 13.0608C61.4078 17.1279 63.2627 21.8869 62.7942 27.5657C62.44 31.8691 60.825 35.5143 58.033 38.5309C53.3595 43.581 44.6141 46.1799 36.4363 38.8726L36.4401 38.8684ZM57.7283 26.1228C57.7893 19.5285 53.1347 14.2843 47.1928 14.259C41.3346 14.2337 36.6344 19.3513 36.562 25.8275C36.4935 32.3205 41.0909 37.5816 46.9224 37.6829C52.9024 37.7883 57.6636 32.6918 57.7283 26.1228ZM15.7424 37.6871C21.6386 37.6871 26.4226 32.3965 26.3731 25.9287C26.3236 19.3935 21.57 14.2168 15.6586 14.259C9.83469 14.3012 5.15731 19.4821 5.14207 25.9161C5.12303 32.4513 9.8385 37.6871 15.7462 37.6871H15.7424ZM31.4847 23.6842C32.8788 15.9255 37.0686 11.4787 42.8544 8.44099C36.703 4.9561 25.04 5.01938 20.1531 8.54224C25.977 11.4702 30.003 16.0816 31.4847 23.6842Z" fill="black"></path><path d="M173.223 16.5851C173.223 13.771 173.265 11.1806 173.204 8.59856C173.174 7.35395 173.513 6.78018 174.709 6.86456C175.893 6.94894 177.085 6.88142 178.392 6.88142V37.389C175.516 38.2581 173.638 37.8953 172.949 36.3469C166.401 39.2032 161.713 38.2286 158.467 33.3261C155.618 29.0185 155.729 23.1963 158.745 19.0237C162.063 14.4334 166.916 13.5306 173.219 16.5851H173.223ZM173.193 26.4027C173.2 22.8292 170.591 19.9392 167.415 20.0025C164.318 20.0658 161.762 22.9263 161.732 26.3563C161.705 29.7568 164.272 32.6679 167.373 32.7396C170.584 32.8156 173.185 29.9804 173.193 26.4027Z" fill="black"></path><path d="M113.4 36.1471V44.256H108.246V15.3011C111.457 14.491 113.038 14.8201 113.693 16.5668C116.538 14.6935 119.669 13.8202 122.743 15.2589C124.754 16.1997 126.773 17.7396 128.159 19.5875C131.203 23.6589 130.879 29.6878 127.839 33.814C124.472 38.3874 119.734 39.2186 113.403 36.1387L113.4 36.1471ZM119.254 32.7382C122.438 32.6833 125.002 29.7005 124.899 26.1692C124.8 22.7349 122.153 19.9462 119.063 20.0137C115.971 20.0854 113.4 22.9754 113.4 26.3801C113.4 29.8735 116.085 32.7888 119.254 32.7382Z" fill="black"></path><path d="M148.505 16.4931C149.998 13.6833 152.219 15.6114 154.127 14.9279V37.4489C150.768 38.2168 149.366 37.9214 148.604 36.3224C142.419 39.2842 137.452 38.2589 134.161 33.3438C131.232 28.9645 131.434 22.9609 134.652 18.7461C138.038 14.3119 143.241 13.4512 148.505 16.4973V16.4931ZM148.917 26.4921C148.978 22.9819 146.357 20.0202 143.18 19.9991C140.129 19.978 137.486 22.8638 137.425 26.2728C137.368 29.6986 139.867 32.6055 142.986 32.7363C146.163 32.8713 148.859 30.0319 148.92 26.4921H148.917Z" fill="black"></path><path d="M239.164 38.1109C233.268 38.1573 228.499 32.9552 228.453 26.42C228.408 20.0367 233.116 14.7418 238.909 14.6617C244.847 14.5773 249.627 19.7203 249.684 26.247C249.742 32.8076 245.076 38.0687 239.164 38.1151V38.1109ZM244.786 26.3188C244.763 22.8381 242.261 20.0535 239.118 20.0071C235.991 19.9607 233.295 22.9647 233.329 26.4495C233.363 29.8754 235.953 32.7316 239.042 32.7485C242.257 32.7696 244.809 29.9133 244.782 26.3188H244.786Z" fill="black"></path><path d="M75.5605 12.1831H68.1445V7.07812H88.1034V12.1578H80.8359V37.6236H75.5644V12.1831H75.5605Z" fill="black"></path><path d="M226.135 21.6478C224.821 21.6478 223.504 21.7195 222.201 21.6014C221.835 21.5677 221.534 20.9475 221.157 20.6648C220.407 20.1037 219.599 19.1249 218.868 19.1797C217.916 19.2557 216.541 19.9307 216.198 20.7703C215.638 22.1541 216.967 22.787 218.003 23.1582C219.508 23.6983 221.07 24.0527 222.567 24.6138C224.719 25.4196 226.433 26.8034 226.787 29.5036C227.168 32.4063 226.231 34.7436 224.067 36.4438C221.123 38.7558 216.187 38.6884 213.307 36.3173C211.513 34.8406 210.698 32.9674 210.713 30.1997H215.547C216.476 32.9379 217.596 33.9124 219.676 33.2711C220.491 33.0222 221.485 32.0645 221.675 31.2292C221.816 30.6048 220.955 29.2842 220.266 28.9256C218.731 28.1366 217.013 27.7949 215.394 27.2042C212.328 26.082 210.725 23.7025 210.976 20.7239C210.995 20.5129 211.033 20.3062 211.071 20.0995C211.715 16.45 215.269 14.2688 219.862 14.716C223.698 15.0873 226.036 17.5723 226.135 21.6436V21.6478Z" fill="black"></path><path d="M180.324 15.0099C182.088 15.0099 183.554 14.8707 184.975 15.0816C185.493 15.1576 186.14 15.9971 186.331 16.63C187.725 21.2836 189.016 25.9751 190.521 31.2868C190.894 30.1646 191.115 29.5823 191.286 28.9832C192.448 24.9035 193.659 20.8364 194.726 16.7271C195.069 15.4023 195.602 14.8876 196.825 14.9846C198.062 15.0816 199.316 15.0057 200.809 15.0057C198.965 20.9545 197.224 26.5784 195.484 32.2023C195.423 32.4006 195.339 32.5947 195.278 32.793C193.583 38.2186 193.579 38.2439 188.411 37.6997C187.927 37.649 187.272 37.1343 187.081 36.6534C186.472 35.1177 186.041 33.4933 185.55 31.9028C183.851 26.4096 182.153 20.9123 180.328 15.0141L180.324 15.0099Z" fill="black"></path><path d="M263.869 20.5332C262.673 20.5332 261.549 20.4531 260.433 20.5501C258.201 20.7442 257.249 21.8538 257.23 24.3345C257.192 28.6801 257.218 33.0215 257.218 37.5527H252V15.154H257.131C257.18 15.905 257.222 16.5885 257.26 17.196C258.239 16.521 259.138 15.5843 260.189 15.2679C261.298 14.9346 262.555 15.192 263.869 15.192V20.5332Z" fill="black"></path><path d="M97.4439 15.1559V20.4508C96.4155 20.4508 95.4785 20.3959 94.5491 20.4592C92.0238 20.6322 91.0144 21.7502 90.984 24.5643C90.9383 28.8339 90.9725 33.1078 90.9725 37.563H85.8457V15.1391H90.8278C90.904 15.8605 90.9802 16.5946 91.102 17.7422C92.6637 14.7087 94.9605 14.8648 97.4401 15.1559H97.4439Z" fill="black"></path><path d="M105.057 15.166V37.5478H100.014V15.166H105.057Z" fill="black"></path><path d="M203.184 15.1479H208.162V37.5761H203.184V15.1479Z" fill="black"></path><path d="M105.665 9.76157C105.589 11.7698 104.099 13.2549 102.275 13.141C100.561 13.0313 99.2125 11.4239 99.2467 9.53375C99.2848 7.58036 100.831 5.93493 102.568 6.00665C104.335 6.07838 105.741 7.78286 105.665 9.76157Z" fill="black"></path><path d="M208.858 9.56784C208.88 11.5465 207.418 13.1624 205.62 13.1456C203.891 13.1329 202.5 11.6351 202.443 9.71972C202.382 7.73679 203.803 6.05763 205.578 6.00701C207.33 5.95638 208.835 7.58913 208.858 9.56784Z" fill="black"></path><path d="M41.6134 26.0271C41.5906 22.5717 43.9788 19.8336 47.0602 19.7788C50.2559 19.7197 52.7736 22.4494 52.7584 25.9638C52.7432 29.3685 50.275 32.1151 47.2088 32.132C44.1312 32.1531 41.6363 29.4276 41.6134 26.0271Z" fill="black"></path><path d="M15.7361 32.1224C12.6775 32.1266 10.1674 29.4012 10.1103 26.0133C10.0532 22.5748 12.6432 19.7312 15.7932 19.7734C18.8747 19.8114 21.3276 22.5664 21.3162 25.9711C21.3048 29.3421 18.7871 32.1182 15.7361 32.1224Z" fill="black"></path></svg> 