<?xml version="1.0" encoding="UTF-8"?> <svg xmlns="http://www.w3.org/2000/svg" width="86" height="33" viewBox="0 0 86 33" fill="none"><path d="M20.3698 14.953C20.7262 14.4718 21.0401 13.9399 21.444 13.5169C23.3142 11.5526 25.5729 10.8345 28.0913 11.2236C29.8206 11.4906 30.8847 12.9718 30.9135 14.9173C30.9169 15.1466 30.9135 15.3779 31.0238 15.6429C31.1121 15.4812 31.2003 15.3177 31.2869 15.1561C32.154 13.5188 33.2351 12.1353 34.8829 11.4191C34.944 11.3928 35.0068 11.3665 35.0696 11.3421C37.4878 10.4642 39.1306 11.9567 38.803 14.7613C38.411 18.111 36.4883 20.0396 33.8222 21.2539C33.6101 21.3498 33.3878 21.4156 33.1536 21.4532C33.6763 21.143 34.2244 20.8742 34.7166 20.5114C35.2121 20.1486 35.689 19.7351 36.1081 19.2708C37.4081 17.829 38.1785 16.1354 37.9851 14.0301C37.8578 12.6391 37.0025 11.8007 35.745 11.8346C34.7726 11.8609 33.9461 12.312 33.2028 12.9624C32.2338 13.8102 31.5465 14.9117 30.9865 16.1166C30.939 16.22 30.9373 16.3516 30.9865 16.5057C31.1732 16.1636 31.3513 15.8177 31.5465 15.4812C32.1014 14.5282 32.7514 13.6673 33.661 13.1128C34.0174 12.8947 34.4213 12.7331 34.8201 12.6504C36.1132 12.3816 36.9855 13.171 37.0687 14.6316C37.1688 16.4192 36.5086 17.8892 35.4785 19.1862C34.7607 20.0903 33.8969 20.7877 32.7853 21.331C33.4082 20.7351 33.9699 20.267 34.4569 19.72C35.3869 18.6787 36.0301 17.4493 36.2388 15.9775C36.2422 15.9587 36.2473 15.9418 36.2473 15.923C36.3254 15.032 36.2999 14.1447 35.5566 13.5865C34.8371 13.0451 34.0887 13.2763 33.3963 13.7256C32.0896 14.5714 31.3734 15.9286 30.8066 17.4099C31.2886 16.6598 31.7281 15.8685 32.2677 15.1748C32.58 14.7726 33.0212 14.4436 33.4642 14.2256C34.4773 13.7275 35.3122 14.3459 35.3581 15.5715C35.3971 16.5752 35.1239 17.4926 34.6911 18.361C34.1141 19.517 33.3725 20.5058 32.4867 21.1035C32.9652 20.2727 33.566 19.3385 34.0564 18.3366C34.4349 17.5621 34.647 16.6937 34.5146 15.7839C34.3941 14.9606 33.8273 14.5752 33.1264 14.8797C32.8125 15.0169 32.4646 15.2237 32.2728 15.5132C31.6975 16.3816 31.0306 17.2369 30.6827 18.22C29.1333 22.6054 27.6824 27.036 26.1957 31.4496C26.138 31.6206 26.0719 31.7861 26.0023 31.974H25.0825C25.4185 30.989 25.7358 30.0529 26.0549 29.1168C27.1715 25.8555 28.2984 22.5979 29.4031 19.3309C29.8664 17.9606 30.104 16.5358 30.0718 15.0677C30.0277 13.0545 28.8601 11.6503 27.0528 11.5169C25.2013 11.3797 23.4754 11.8458 22.0244 13.1729C21.4882 13.6617 21.0826 14.3271 20.6176 14.9098C20.5752 14.9624 20.5242 15.0057 20.4784 15.0545L20.3613 14.953H20.3698Z" fill="black"></path><path d="M53.8313 1.24143C54.1893 1.16624 54.5406 1.09106 54.9836 0.99707C54.6187 2.04032 54.2861 2.99147 53.9501 3.94261C51.0685 12.095 48.1835 20.2474 45.3054 28.4017C45.1 28.9825 44.8981 29.5709 44.7708 30.1743C44.6622 30.6893 44.6622 31.2326 44.6164 31.7307C44.1039 31.4694 43.7967 30.9826 43.946 30.2984C44.1836 29.2156 44.45 28.1292 44.8132 27.0915C47.6388 18.9936 50.4898 10.907 53.3306 2.81665C53.5105 2.30724 53.6599 1.78467 53.833 1.23955L53.8313 1.24143Z" fill="black"></path><path d="M51.3839 1.78302L52.4547 1.55933C52.4157 1.85069 52.4174 2.08941 52.3495 2.29806C51.6028 4.5951 50.8748 6.89965 50.0857 9.17788C47.9423 15.366 45.7701 21.5428 43.6199 27.729C43.4248 28.291 43.3026 28.8869 43.1533 29.4696C42.9394 30.3005 43.026 31.0411 43.7472 31.5994C42.8138 31.449 42.1147 30.4452 42.3217 29.4489C42.5627 28.291 42.8461 27.1312 43.2313 26.0222C45.5749 19.2495 47.9644 12.4975 50.3063 5.72293C50.7356 4.47855 51.0105 3.16838 51.3856 1.78113L51.3839 1.78302Z" fill="black"></path><path d="M48.897 2.33326C49.172 2.28063 49.5114 2.21672 50.0103 2.12085C49.9237 2.82199 49.9305 3.47049 49.7574 4.05321C49.233 5.81264 48.6696 7.55892 48.0672 9.2864C46.1054 14.9218 44.108 20.5404 42.1547 26.1796C41.8424 27.08 41.5998 28.033 41.4776 28.9879C41.3164 30.2548 41.8408 31.0838 42.9116 31.5782C43.0796 31.6552 43.2459 31.7323 43.4275 31.815C41.7966 31.5199 40.069 30.236 40.8395 27.4954C41.3011 25.8506 41.8696 24.2416 42.4313 22.6325C44.3676 17.0854 46.3277 11.5477 48.2657 6.00062C48.4745 5.40475 48.6442 4.78256 48.7545 4.15472C48.8546 3.5908 48.8495 3.00432 48.897 2.33138V2.33326Z" fill="black"></path><path d="M46.2789 2.94524C46.6624 2.8569 47.0459 2.77043 47.4685 2.67456C47.7689 3.32683 47.74 3.98286 47.5686 4.5825C47.1138 6.17087 46.6268 7.75172 46.0854 9.30626C44.1729 14.8045 42.2162 20.2839 40.3189 25.7896C40.0287 26.6318 39.8132 27.5735 39.8284 28.4645C39.8539 30.1206 40.8857 31.0285 42.1687 31.6319C42.3044 31.6958 42.447 31.7465 42.6167 31.8142C40.4241 31.6789 38.6507 29.286 39.1547 26.9776C39.5145 25.3291 40.0864 23.7295 40.6362 22.1392C42.4487 16.8947 44.3171 11.6728 46.1041 6.41899C46.3858 5.59003 46.3807 4.63324 46.4673 3.73097C46.4893 3.49788 46.3553 3.24412 46.2789 2.94712V2.94524Z" fill="black"></path><path d="M43.9491 3.47398C44.3513 3.38939 44.7043 3.31608 45.0692 3.23901C45.5409 4.01346 45.4917 4.83867 45.2677 5.59996C44.7603 7.32556 44.1884 9.03048 43.6012 10.726C41.9415 15.525 40.2479 20.3108 38.595 25.1135C38.169 26.3541 37.9857 27.6455 38.5135 28.9237C39.1075 30.3561 40.1936 31.1568 41.4799 31.6813C41.8143 31.8166 42.1571 31.9256 42.4897 32.0647C40.981 31.7583 39.5928 31.1681 38.5237 29.8843C37.2017 28.294 37.2119 26.4443 37.8279 24.5665C38.6425 22.0815 39.5436 19.6341 40.404 17.1678C41.6106 13.7091 42.8155 10.2504 44.0136 6.78795C44.1375 6.4308 44.219 6.05297 44.2919 5.67702C44.4633 4.79167 44.3921 4.33866 43.9474 3.47398H43.9491Z" fill="black"></path><path d="M7.75886 31.9789H6.89676C6.66597 30.8322 6.42668 29.6762 6.19928 28.5164C5.24385 23.6366 4.2969 18.7568 3.33977 13.8789C3.02921 12.3018 2.73563 10.7172 2.36228 9.15701C2.00081 7.65135 1.41194 6.28102 0 5.57236C0.935068 5.21521 1.63085 5.4201 2.18748 6.23215C2.89684 7.26976 3.19892 8.50287 3.44329 9.73974C4.53618 15.2624 5.59683 20.7926 6.67275 26.319C7.01046 28.0596 7.35666 29.7984 7.69607 31.539C7.71983 31.6631 7.73171 31.789 7.75886 31.9789Z" fill="black"></path><path d="M3.13477 5.49146H4.55179C6.2692 14.313 7.9832 23.1159 9.70739 31.9675H8.80966C8.39728 29.8679 7.98999 27.7889 7.5827 25.7118C6.58315 20.5989 5.60056 15.4823 4.57895 10.3731C4.24802 8.71521 4.00026 7.01968 3.13477 5.49146Z" fill="black"></path><path d="M47.074 32.2981C54.7802 31.4504 60.0563 24.4784 60.9897 17.0422C61.1034 16.1324 61.066 15.1625 60.9167 14.2583C60.6689 12.7658 59.6066 11.8109 58.2371 11.6549C56.3652 11.4406 54.7055 12.0948 53.1612 13.2038C53.0289 13.2978 52.9016 13.3993 52.7506 13.4576C53.9385 12.4087 55.2571 11.6568 56.7641 11.3447C57.823 11.1267 58.8887 11.074 59.9104 11.4913C61.3325 12.0703 62.0079 13.3147 62.1029 14.9256C62.2642 17.6437 61.5786 20.1738 60.4772 22.5592C58.7089 26.3939 56.0479 29.2191 52.4689 30.9466C50.855 31.7267 49.1596 32.1308 47.4134 32.3C47.3014 32.3113 47.186 32.3 47.0723 32.3L47.074 32.2981Z" fill="black"></path><path d="M5.92167 5.49146H7.15202C6.67176 8.42384 7.61871 11.1231 8.11424 13.8769C8.9984 18.7774 9.96741 23.6591 10.9228 28.5426C11.0654 29.2739 10.6513 29.7381 10.4409 30.4055C9.33441 26.4806 5.7876 6.95201 5.92167 5.49146Z" fill="black"></path><path d="M46.9727 32.1564C51.4308 30.8782 54.482 27.6639 56.7747 23.4138C57.9525 21.2333 58.7263 18.8818 58.9826 16.3366C59.1727 14.4531 58.4565 13.0113 57.0208 12.7237C56.3725 12.594 55.6564 12.6655 55.0064 12.8234C53.7387 13.1335 52.6492 13.861 51.6701 14.8347C51.7939 14.6956 51.9127 14.5527 52.0434 14.4211C52.1775 14.2858 52.32 14.1561 52.4643 14.0339C53.7438 12.9512 55.1439 12.2031 56.7934 12.1937C58.9622 12.1824 60.1807 13.6617 59.9855 16.0678C59.6733 19.91 58.28 23.2521 56.0976 26.2052C54.2529 28.7015 52.0027 30.6 49.1856 31.5643C48.4627 31.8125 47.7109 31.9609 46.9727 32.1546V32.1564Z" fill="black"></path><path d="M8.49965 5.44849H9.97268C8.80682 7.03122 9.09022 8.79441 9.39569 10.4975C10.2951 15.5257 11.2556 20.5409 12.2162 25.556C12.357 26.2891 11.9599 26.7666 11.7003 27.4865C11.5984 26.9959 11.517 26.6406 11.4491 26.2835C10.4071 20.7796 9.35666 15.2757 8.33165 9.76811C8.11443 8.59704 7.96678 7.40529 8.25867 6.21354C8.31807 5.96729 8.40801 5.73045 8.49796 5.44849H8.49965Z" fill="black"></path><path d="M21.8223 13.6998C22.6962 12.7355 23.7671 12.1791 24.9652 12.0363C25.7255 11.946 26.5332 11.9573 27.2715 12.149C28.3593 12.4291 29.0381 13.5476 29.1161 14.807C29.2315 16.6566 28.7513 18.3728 28.1641 20.0627C26.8133 23.9538 25.4488 27.8392 24.0878 31.7265C24.059 31.8092 24.0131 31.8863 23.9707 31.9765H23.0645C23.4803 30.7829 23.8808 29.64 24.2745 28.4971C25.437 25.1173 26.6368 21.7507 27.7347 18.3446C28.0572 17.3427 28.198 16.2299 28.2269 15.1623C28.2761 13.3408 27.0967 12.2111 25.4471 12.2787C24.1455 12.3333 22.9712 12.7487 21.9428 13.6434C21.9088 13.6716 21.863 13.6829 21.8223 13.7017V13.6998Z" fill="black"></path><path d="M20.7322 15.5081C20.7491 15.4235 20.744 15.322 20.7865 15.26C21.9778 13.5156 23.5017 12.5212 25.5348 12.7694C26.5971 12.8991 27.2827 13.7957 27.3269 14.9799C27.3896 16.6604 26.8856 18.2018 26.3528 19.7262C24.9849 23.6474 23.5951 27.561 22.2137 31.4765C22.1543 31.6456 22.083 31.8092 22.0202 31.969H21.0495C21.4789 30.7753 21.8963 29.6362 22.3002 28.4933C23.5306 25.0064 24.7711 21.5233 25.9692 18.0213C26.2187 17.292 26.3545 16.4987 26.4461 15.7224C26.6565 13.9291 25.5891 12.8295 23.9735 13.1209C22.7652 13.3389 21.8132 14.0062 21.1106 15.1134C21.0156 15.2619 20.9053 15.3972 20.8 15.5401L20.7305 15.5063L20.7322 15.5081Z" fill="black"></path><path d="M52.312 14.5473C53.315 13.7202 54.4927 13.1149 55.8911 13.2164C57.023 13.2992 57.7849 14.1977 57.8342 15.5078C57.8953 17.1169 57.527 18.6432 57.0179 20.1264C55.6127 24.2261 53.4643 27.7111 50.1245 30.1848C49.0452 30.9837 47.8725 31.557 46.5879 31.8277C48.1271 31.2187 49.4763 30.2656 50.6676 29.0457C53.0774 26.5795 54.8033 23.5945 55.9233 20.1959C56.3068 19.0323 56.502 17.7917 56.7752 16.5831C56.8193 16.3894 56.8227 16.1827 56.8244 15.9797C56.8431 14.2127 55.813 13.2634 54.2619 13.7033C53.5678 13.9007 52.9145 14.2785 52.312 14.5435V14.5473Z" fill="black"></path><path d="M74.5796 11.5261C73.5818 11.8438 72.5449 12.058 71.5945 12.4998C68.1275 14.107 65.5191 16.7311 64.1344 20.6729C63.5268 22.4004 63.1874 24.2105 63.4912 26.0715C63.9087 28.6298 65.2527 30.4118 67.3825 31.4814C67.5166 31.549 67.654 31.6129 67.7711 31.7144C66.3897 31.2577 65.1882 30.4757 64.243 29.2482C62.4085 26.8628 62.1386 24.1354 62.8599 21.2142C63.7949 17.4285 66.0673 14.9153 69.1559 13.1991C70.8444 12.2611 72.645 11.7084 74.5016 11.3719C74.5813 11.3569 74.6781 11.4528 74.7663 11.496C74.7052 11.5054 74.6424 11.5167 74.5796 11.5261Z" fill="black"></path><path d="M80.1033 11.635C82.6166 12.0749 85.0587 14.7291 85.522 17.6652C86.0497 21.0074 85.2097 24.0149 83.3124 26.6278C81.2047 29.5282 78.3011 30.9436 75.1089 31.7519C74.7695 31.8384 74.4267 31.9023 74.0839 31.9737C74.0534 31.9794 74.0194 31.9662 74.1196 31.9794C75.2566 31.5038 76.5599 31.1034 77.741 30.4399C82.1754 27.9455 84.6989 23.9661 84.7617 18.387C84.7956 15.3926 83.3056 13.2817 80.884 11.9865C80.7499 11.9151 80.6107 11.8568 80.4716 11.7948C80.3494 11.7403 80.2255 11.6876 80.1033 11.635Z" fill="black"></path><path d="M74.5812 11.5293C74.6439 11.5199 74.705 11.5087 74.7678 11.4993C74.7084 11.582 74.6643 11.7098 74.5879 11.738C73.2082 12.2681 71.9474 13.0388 70.8324 14.0783C67.513 17.1723 65.5936 21.0916 65.2271 25.9037C65.0421 28.3323 66.1197 30.3906 68.1103 31.4583C68.1697 31.4902 68.2241 31.5316 68.2919 31.5748C67.4417 31.447 66.1231 30.3944 65.429 29.3455C64.1885 27.4695 64.1002 25.3792 64.5534 23.2307C65.782 17.4091 68.9996 13.5895 74.128 11.738C74.2825 11.6816 74.4301 11.5989 74.5812 11.5293Z" fill="black"></path><path d="M19.0781 31.9549C19.628 30.4285 20.1591 28.9642 20.6852 27.4961C21.8494 24.2498 23.0203 21.0073 24.1641 17.7535C24.3848 17.1256 24.5409 16.4583 24.6461 15.7929C24.8701 14.3812 24.0929 13.6237 22.8489 14.0278C22.4909 14.1444 22.1633 14.3756 21.8647 14.5316C22.4654 13.6575 23.9877 13.3248 24.7276 13.7064C25.308 14.0053 25.6932 14.7045 25.5421 15.5485C25.3504 16.6237 25.123 17.7084 24.7666 18.7272C23.2342 23.0938 21.6474 27.436 20.0811 31.7876C20.0624 31.8383 20.0268 31.8797 19.9843 31.9549H19.0798H19.0781Z" fill="black"></path><path d="M79.577 11.74C82.501 12.5558 84.2252 15.5371 83.823 18.9657C83.2732 23.6744 81.2265 27.3493 77.6373 29.9546C76.2491 30.9622 74.7048 31.5637 73.096 31.9753C73.0553 31.9866 73.0061 31.9584 72.9688 31.949C77.359 30.4734 80.2202 27.1895 81.9749 22.603C82.6147 20.93 82.9864 19.1743 83.0305 17.3604C83.0899 14.8604 82.0072 13.099 80.0233 11.9787C79.8757 11.896 79.7264 11.8208 79.577 11.7419V11.74Z" fill="black"></path><path d="M13.4965 5.53571C13.4286 5.56954 13.3624 5.60902 13.2912 5.63722C11.7333 6.26129 11.0307 7.34777 11.231 9.17675C11.4346 11.0508 11.7757 12.9062 12.0931 14.7633C12.5496 17.4326 13.0739 20.0886 13.4846 22.7672C13.5627 23.2766 13.247 23.8594 13.113 24.4082L12.9416 24.3857C12.7854 23.5548 12.6242 22.724 12.4732 21.8913C11.8198 18.2953 11.1631 14.6994 10.5199 11.1016C10.3163 9.96436 10.1262 8.81584 10.3655 7.6598C10.4639 7.18611 10.6302 6.71055 10.8542 6.29324C11.1546 5.7312 11.5958 5.37594 12.2509 5.44925C12.6565 5.49436 13.0706 5.45864 13.4812 5.45864L13.4965 5.53947V5.53571Z" fill="black"></path><path d="M69.5102 31.6987C68.5666 31.6987 67.898 31.0915 67.3006 30.3998C66.1975 29.1216 66.0058 27.5445 66.2196 25.8753C66.8577 20.909 68.8093 16.7247 72.3171 13.4953C73.2912 12.5987 74.3976 11.9446 75.6416 11.6062C73.1978 12.7698 71.5483 14.8807 70.1788 17.2905C68.4325 20.3658 67.2938 23.6891 67.0291 27.3452C66.878 29.4392 67.8827 31.2438 69.5102 31.7156V31.7006V31.6987Z" fill="black"></path><path d="M72.4392 31.6426C73.7256 30.6388 74.6182 29.2873 75.387 27.8399C77.5337 23.7966 78.9151 19.4638 79.3292 14.7757C79.4395 13.5295 79.3054 12.4091 78.1073 11.7136C79.4106 12.0501 80.2456 13.2099 80.2388 14.6911C80.2303 16.6367 79.8875 18.5277 79.3682 20.3811C78.4807 23.5484 77.2452 26.5222 75.3123 29.0937C74.5843 30.0636 73.7612 30.9095 72.743 31.4997C72.6445 31.5561 72.5393 31.5975 72.4375 31.6463L72.4392 31.6426Z" fill="black"></path><path d="M72.7419 31.7685C76.5297 29.6726 78.4915 26.0485 79.9611 21.9958C80.5873 20.2683 80.9522 18.46 81.1321 16.6028C81.368 14.1686 80.7333 12.8057 78.7987 11.7136C80.6484 12.0275 82.1673 14.2043 82.0298 16.4637C81.7227 21.5634 79.9204 25.9038 76.5297 29.3944C75.537 30.417 74.3864 31.1858 73.0898 31.6595C73.0033 31.6915 72.9133 31.714 72.7402 31.7666L72.7419 31.7685Z" fill="black"></path><path d="M69.5114 31.6993V31.7143C69.508 31.6974 69.5063 31.6711 69.4961 31.6635C68.057 30.7068 67.8245 29.2067 68.0214 27.5469C68.6289 22.3965 70.3327 17.7629 73.4145 13.8042C74.1069 12.9151 74.9096 12.1613 75.9329 11.759C74.1935 13.0617 73.1311 14.9715 72.191 16.964C70.3853 20.7893 69.1007 24.8006 68.8258 29.1484C68.7511 30.3308 69.0396 31.0319 69.8864 31.7838L69.5114 31.6974V31.6993Z" fill="black"></path><path d="M21.9553 14.716C22.2404 14.6014 22.5171 14.4303 22.8107 14.3814C23.4352 14.278 23.8781 14.7574 23.7508 15.4999C23.6032 16.3589 23.3876 17.2179 23.0958 18.03C21.453 22.6184 19.778 27.1918 18.1133 31.7708C18.0895 31.8366 18.0471 31.8968 18.0063 31.972H17.1035C17.4887 30.9193 17.8536 29.9231 18.2168 28.9231C19.6338 25.0245 21.0525 21.1278 22.4611 17.2273C22.6206 16.7856 22.736 16.3251 22.8463 15.8645C23.0601 14.9679 22.7988 14.6577 21.9537 14.7141L21.9553 14.716Z" fill="black"></path><path d="M46.4277 31.6281C50.6652 27.9965 53.0445 23.0377 54.4819 17.423C54.6109 16.9173 54.6702 16.3703 54.6601 15.844C54.6431 14.9417 54.0746 14.4831 53.2753 14.6767C52.9444 14.7575 52.6287 14.9098 52.308 15.0301L52.2588 14.8778C52.8273 14.6579 53.3805 14.3402 53.966 14.2368C55.0775 14.0413 55.7784 14.7274 55.6579 15.9681C55.5476 17.1091 55.3372 18.2632 54.9995 19.3459C53.8217 23.1111 52.0364 26.4871 49.4722 29.3142C48.5779 30.301 47.5681 31.1206 46.4277 31.6281Z" fill="black"></path><path d="M17.9978 13.9541C19.0924 11.4654 20.0342 8.88261 21.7194 6.7773C21.8518 6.61377 22.0011 6.46526 22.1403 6.30924C22.6596 5.73028 23.2298 5.32614 24.0274 5.44269C24.4839 5.51036 24.9539 5.45397 25.4529 5.5066C21.5887 6.85249 19.8459 10.4522 17.9961 13.9541H17.9978Z" fill="black"></path><path d="M19.4612 5.4563H21.1583C19.9992 8.31538 18.8367 11.1839 17.6641 14.0749C18.46 11.2515 19.6462 8.5447 19.4595 5.4563H19.4612Z" fill="black"></path><path d="M17.4831 13.9896C17.663 12.6418 17.8666 11.4144 17.9735 10.1775C18.038 9.43687 18.0142 8.66618 17.9107 7.9312C17.7546 6.82216 17.2302 5.95372 16.2578 5.44995H17.9158C18.4063 5.98756 18.6965 6.70938 18.6286 7.49135C18.5098 8.87296 18.3078 10.2489 18.0804 11.6155C17.9515 12.3862 17.7037 13.1324 17.4831 13.9896Z" fill="black"></path><path d="M31.2734 17.1905C31.6655 16.7093 32.015 16.1661 32.4631 15.7619C32.9993 15.2788 33.5865 15.6059 33.5967 16.3729C33.6187 18.1793 32.9111 19.6925 31.9675 21.2113C32.2458 20.1474 32.5259 19.1981 32.7312 18.2281C32.8279 17.7733 32.8143 17.2789 32.7872 16.8052C32.777 16.6304 32.6141 16.3916 32.4682 16.3221C32.3494 16.2657 32.1101 16.3691 31.993 16.4875C31.7639 16.7206 31.584 17.012 31.3837 17.2789L31.2751 17.1905H31.2734Z" fill="black"></path></svg> 