<?xml version="1.0" encoding="utf-8"?>
<!-- Generator: Adobe Illustrator 24.3.0, SVG Export Plug-In . SVG Version: 6.00 Build 0)  -->
<svg version="1.1" id="Layer_1" xmlns="http://www.w3.org/2000/svg" xmlns:xlink="http://www.w3.org/1999/xlink" x="0px" y="0px"
	 viewBox="0 0 900 373.48" style="enable-background:new 0 0 900 373.48;" xml:space="preserve">
<g>
	<g>
		<g>
			<path style="fill:#6564EC;" d="M12.7,369.58h0.28l7-19.31h5.62l-8.45,22.77H8.28L0,350.28h5.69L12.7,369.58z"/>
			<path style="fill:#6564EC;" d="M37.8,349.99c6.82,0,12.66,3.15,12.66,11.67c0,8.42-5.87,11.63-12.66,11.63
				c-6.75,0-12.7-3.25-12.7-11.63C25.11,353.18,31.05,349.99,37.8,349.99z M45.05,361.66c0-5.55-3.11-7.25-7.25-7.25
				s-7.29,1.66-7.29,7.25c0,5.48,3.15,7.21,7.29,7.21S45.05,367.11,45.05,361.66z"/>
			<path style="fill:#6564EC;" d="M70.76,365.16l5.59,0.04c-1.34,5.83-6.68,8.1-12.24,8.1c-6.75,0-12.7-3.25-12.7-11.63
				c0-8.49,5.94-11.63,12.7-11.63c6.58,0,11.17,2.76,12.38,8.7h-5.52c-0.96-3.22-3.57-4.31-6.86-4.31c-4.17,0-7.29,1.66-7.29,7.25
				c0,5.48,3.11,7.21,7.29,7.21C67.01,368.88,69.63,368.03,70.76,365.16z"/>
			<path style="fill:#6564EC;" d="M92.86,367.99h-9.3l-1.52,5.06h-5.52l7.57-22.77h8.63l7.29,22.77h-5.69L92.86,367.99z
				 M91.94,364.56l-3.5-11.21h-0.39l-3.54,11.21H91.94z"/>
			<path style="fill:#6564EC;" d="M103.85,373.05v-18.46h-7.43v-4.31h20.23v4.31h-7.43v18.46H103.85z"/>
			<path style="fill:#6564EC;" d="M124.11,350.28v22.77h-5.38v-22.77H124.11z"/>
			<path style="fill:#6564EC;" d="M139.39,349.99c6.82,0,12.66,3.15,12.66,11.67c0,8.42-5.87,11.63-12.66,11.63
				c-6.75,0-12.7-3.25-12.7-11.63C126.69,353.18,132.63,349.99,139.39,349.99z M146.64,361.66c0-5.55-3.11-7.25-7.25-7.25
				c-4.14,0-7.29,1.66-7.29,7.25c0,5.48,3.15,7.21,7.29,7.21C143.53,368.88,146.64,367.11,146.64,361.66z"/>
			<path style="fill:#6564EC;" d="M176.87,373.05h-8.28l-8.84-17.5v17.5h-5.38v-22.77h8.27l8.84,17.65v-17.65h5.38V373.05z"/>
			<path style="fill:#6564EC;" d="M188.11,373.05v-22.77h5.41v9.16h10.11v-9.16h5.41v22.77h-5.41v-9.41h-10.11v9.41H188.11z"/>
			<path style="fill:#6564EC;" d="M224.36,349.99c6.82,0,12.66,3.15,12.66,11.67c0,8.42-5.87,11.63-12.66,11.63
				c-6.75,0-12.7-3.25-12.7-11.63C211.66,353.18,217.6,349.99,224.36,349.99z M231.61,361.66c0-5.55-3.11-7.25-7.25-7.25
				c-4.14,0-7.29,1.66-7.29,7.25c0,5.48,3.15,7.21,7.29,7.21C228.49,368.88,231.61,367.11,231.61,361.66z"/>
			<path style="fill:#6564EC;" d="M239.67,350.28h7.43l6.61,15.35l7.29-15.35h7.25v22.77h-5.38v-13.08l0.35-4.24l-6.65,14.32h-5.8
				l-6.08-13.79l0.35,3.71v13.08h-5.38V350.28z"/>
			<path style="fill:#6564EC;" d="M272.48,373.05v-22.77h17.57v4.31h-12.16v5.13h11.35v3.89h-11.35v5.13l12.63-0.04v4.35H272.48z"/>
			<path style="fill:#6564EC;" d="M307.31,357.42c-0.35-2.69-2.72-3.04-5.13-3.15c-2.44-0.11-4.88,0.6-4.74,2.55
				c0.35,4.56,15.1,1.06,15.17,10.26c0,5.69-6.15,6.22-9.9,6.22c-6.05,0-10.75-2.12-10.79-7.57h5.34c0.07,2.26,2.48,3.29,4.95,3.29
				c2.55,0,5.23-0.28,5.09-2.16c-0.39-4.38-14.57-0.74-15.07-9.55c-0.28-4.53,2.83-7.39,9.9-7.39c6.26,0,10.11,2.51,10.43,7.5
				H307.31z"/>
			<path style="fill:#6564EC;" d="M335,367.11c-0.35-1.17-0.64-2.33-2.97-2.33h-4.07v8.28h-5.41v-22.81h11.42
				c4.46,0,8.2,2.02,8.2,7.46c0,3.61-2.23,5.45-6.05,5.45v0.21c1.45,0.18,3.57,0.64,4.39,3.04l2.3,6.65h-5.87L335,367.11z
				 M331.81,361.24c2.94,0,5.2-0.25,5.2-3.43c0-2.79-2.3-3.22-5.09-3.22h-3.96v6.65H331.81z"/>
			<path style="fill:#6564EC;" d="M345.6,373.05v-22.77h17.58v4.31h-12.16v5.13h11.35v3.89h-11.35v5.13l12.63-0.04v4.35H345.6z"/>
			<path style="fill:#6564EC;" d="M388.64,373.05h-8.28l-8.84-17.5v17.5h-5.38v-22.77h8.27l8.84,17.65v-17.65h5.38V373.05z"/>
			<path style="fill:#6564EC;" d="M398.01,373.05v-18.46h-7.43v-4.31h20.23v4.31h-7.43v18.46H398.01z"/>
			<path style="fill:#6564EC;" d="M423.47,367.99h-9.3l-1.52,5.06h-5.52l7.57-22.77h8.63l7.29,22.77h-5.69L423.47,367.99z
				 M422.55,364.56l-3.5-11.21h-0.39l-3.54,11.21H422.55z"/>
			<path style="fill:#6564EC;" d="M432.73,373.05v-22.77h5.41v18.46l11.71-0.04v4.35H432.73z"/>
			<path style="fill:#6564EC;" d="M459.18,373.05v-22.77h5.41v18.46l11.71-0.04v4.35H459.18z"/>
			<path style="fill:#6564EC;" d="M478.48,373.05v-22.77h5.41v18.46l11.71-0.04v4.35H478.48z"/>
			<path style="fill:#6564EC;" d="M515.08,365.16l5.59,0.04c-1.34,5.83-6.68,8.1-12.24,8.1c-6.75,0-12.7-3.25-12.7-11.63
				c0-8.49,5.94-11.63,12.7-11.63c6.58,0,11.17,2.76,12.38,8.7h-5.52c-0.96-3.22-3.57-4.31-6.86-4.31c-4.17,0-7.29,1.66-7.29,7.25
				c0,5.48,3.11,7.21,7.29,7.21C511.33,368.88,513.95,368.03,515.08,365.16z"/>
		</g>
		<g>
			<g>
				<g>
					<g>
						<path style="fill:#212121;" d="M176.67,162.06V28.09h31.83v108.59l68.86-0.21v25.59H176.67z"/>
						<path style="fill:#212121;" d="M355.15,143.13c-4.37,12.48-14.77,19.14-27.88,20.8c-19.97,2.49-43.69-5.62-45.56-28.29
							c-2.29-27.25,20.18-35.16,44.73-35.16h28.71V90.5c0-7.7-6.24-12.27-19.97-12.27c-12.27-0.21-19.35,3.95-19.35,12.9h-27.46
							c-1.04-26,20.39-35.36,45.98-35.36c28.5,0,51.18,9.15,51.18,32.04v45.77c0,5.2,1.87,8.53,6.86,8.53h1.25v19.97H377
							C367.64,162.06,355.78,156.86,355.15,143.13z M328.53,143.75c11.23-0.21,25.17-8.11,26.63-19.14v-7.28l-24.34,0.21
							c-11.23,0.21-19.14,2.5-19.76,12.9C310.43,141.05,318.75,143.96,328.53,143.75z"/>
						<path style="fill:#212121;" d="M477.26,162.27v-23.3c-5.62,14.15-16.44,24.34-32.45,24.55
							c-29.12,0.42-41.81-19.56-41.81-46.18V58.25h30.79v57c0,13.11,3.95,23.09,19.35,23.09c16.02,0,23.09-8.53,23.09-23.51V58.25
							h31l0.21,103.81L477.26,162.27z"/>
						<path style="fill:#212121;" d="M575.44,179.95c17.06,0,25.59-0.62,27.04-13.31c0.21-0.62,0.42-29.33,0.42-30.16
							c-5.41,14.98-18.31,22.05-29.96,22.88c-37.24,3.12-53.67-26.21-53.67-50.97c0-24.96,15.6-53.05,53.05-50.97
							c14.15,0.62,25.38,8.11,31.62,23.51V58.25h30.17v109.22c0,24.76-13.73,38.69-53.05,38.69h-47.85v-26.21H575.44z
							 M603.52,108.39c0-15.6-10.4-26.21-26.42-26.21c-16.23,0-26.63,10.4-26.63,26.21c0,14.98,10.61,26,26.63,26
							C592.71,134.39,603.52,123.37,603.52,108.39z"/>
						<path style="fill:#212121;" d="M653.23,162.06V13.52h31v66.36c10.2-16.02,24.34-21.84,34.33-22.67
							c35.99-3.54,39.73,24.76,39.73,45.77v59.08h-31v-57c0-14.35-5.62-22.47-19.14-22.47c-16.23,0-23.93,10.19-23.93,26v53.46
							H653.23z"/>
					</g>
				</g>
				<g>
					<g>
						<g>
							<path style="fill:#212121;" d="M176.67,329.38V195.41h31.83V304l68.86-0.21v25.59H176.67z"/>
						</g>
					</g>
					<g>
						<g>
							<path style="fill:#212121;" d="M336.23,224.74c38.9,0,56.79,21.84,56.79,52.84c0,38.07-25.38,52.84-56.79,52.84
								c-31,0-57-14.77-57-52.84C279.23,246.37,297.32,224.74,336.23,224.74z M363.48,277.58c0-21.84-11.23-28.08-27.25-28.08
								c-16.02,0-27.25,6.24-27.25,28.08c0,21.64,11.44,27.88,27.25,27.88S363.48,299.22,363.48,277.58z"/>
						</g>
					</g>
					<g>
						<g>
							<path style="fill:#212121;" d="M483.09,329.38V309.2c-5.41,13.73-23.3,21.22-33.08,21.22c-31.21,0-50.14-21.01-50.14-52.84
								c0-32.04,18.93-52.84,50.14-52.84c9.57,0,26.42,5.62,32.45,20.39v-64.08h31v148.33H483.09z M482.67,277.58
								c0-15.39-9.57-28.08-25.8-28.08c-16.23,0-25.8,12.69-25.8,28.08c0,15.19,9.78,27.88,25.8,27.88
								C472.89,305.46,482.67,292.77,482.67,277.58z"/>
						</g>
					</g>
					<g>
						<g>
							<path style="fill:#212121;" d="M582.52,347.27c17.06,0,25.59-0.62,27.04-13.31c0.21-0.62,0.42-29.33,0.42-30.17
								c-5.41,14.98-18.31,22.05-29.96,22.88c-37.24,3.12-53.67-26.21-53.67-50.97c0-24.96,15.6-53.05,53.05-50.97
								c14.14,0.62,25.38,8.11,31.62,23.51v-22.67h30.17v109.22c0,24.76-13.73,38.69-53.05,38.69h-47.85v-26.21H582.52z
								 M610.6,275.71c0-15.6-10.4-26.21-26.42-26.21c-16.23,0-26.63,10.4-26.63,26.21c0,14.98,10.61,26,26.63,26
								C599.78,301.71,610.6,290.69,610.6,275.71z"/>
						</g>
					</g>
					<g>
						<g>
							<path style="fill:#212121;" d="M761,296.72c-3.12,27.67-29.12,32.66-51.59,32.66c-33.08,0-56.79-15.39-56.79-53.67
								c0-16.64,7.7-51.8,55.96-51.8c37.65,0,54.3,22.47,53.88,59.5H680.7c0.42,13.31,9.15,23.09,29.54,23.09
								c14.15,0,22.26-3.75,24.13-9.78H761z M733.95,269.26c-1.25-13.11-9.57-20.6-27.25-20.6c-13.94,0-23.3,8.11-25.38,20.6H733.95
								z"/>
						</g>
					</g>
				</g>
			</g>
			<g>
				<g>
					<path style="fill:#212121;" d="M862.55,155.42c-8.74,5.41-19.35,8.94-31,8.94c-35.16,0-53.67-17.27-53.67-42.44
						c0-17.89,11.65-28.71,27.25-37.45c-5.82-7.7-10.82-16.44-10.82-26.42c0-17.27,14.15-32.04,38.07-32.04
						C853.61,26.23,869,38.51,869,54.73c0,17.68-14.15,26.63-28.91,34.53l22.67,27.67c1.87-6.24,2.5-13.11,2.5-20.18h24.34
						c0,15.81-1.87,28.5-9.36,41.61L900,162.28h-31.83L862.55,155.42z M818.45,101.12c-8.32,5.62-13.31,12.07-13.31,21.84
						c0,11.65,9.36,20.18,25.38,20.18c6.87,0,12.9-1.87,17.89-5.2L818.45,101.12z M843.62,55.98c0-4.99-5.41-8.32-12.27-8.32
						c-6.66,0-11.65,2.91-11.65,8.94c0,5.41,3.54,11.86,7.7,16.64C834.89,69.29,843.62,64.09,843.62,55.98z"/>
				</g>
			</g>
			<g>
				<polygon style="fill:#6564EC;" points="138.34,56.13 138.34,329.38 90.48,329.38 90.48,181.05 47.86,181.05 47.86,329.38 
					0,329.38 0,56.13 69.17,0 				"/>
			</g>
		</g>
	</g>
</g>
<g>
</g>
<g>
</g>
<g>
</g>
<g>
</g>
<g>
</g>
<g>
</g>
<g>
</g>
<g>
</g>
<g>
</g>
<g>
</g>
<g>
</g>
<g>
</g>
<g>
</g>
<g>
</g>
<g>
</g>
</svg>
